<svg width="32" height="44" viewBox="0 0 32 44" fill="none" xmlns="http://www.w3.org/2000/svg">
<g clip-path="url(#clip0_2080_4287)">
<path d="M2.25 28.2332C2.25 28.2332 3.58701 28.5251 5.15486 28.2721C9.41597 27.5714 12.3497 24.1555 12.3497 19.9415C12.3497 15.7276 9.40635 12.2824 5.15486 11.6012C3.65434 11.3579 2.25 11.6401 2.25 11.6401V28.2429L2.25 28.2332ZM5.39533 14.9003C7.73269 15.6108 9.22359 17.5474 9.22359 19.9318C9.22359 22.3161 7.73269 24.243 5.39533 24.9438V14.8906V14.9003Z" fill="#B60005"/>
<path d="M19.832 11.6304V41.6536C19.832 41.6536 21.0055 41.9553 22.7177 41.6925C24.6703 41.4005 26.4401 40.3689 27.729 38.8605C29.0372 37.3326 29.749 35.3764 29.749 33.3522C29.749 30.7051 28.5178 28.2332 26.4593 26.6274C28.5178 25.0313 29.749 22.5594 29.749 19.9221C29.749 17.8978 29.0372 15.9417 27.729 14.4138C26.4401 12.8956 24.6606 11.9029 22.7177 11.5818C21.0825 11.3093 19.832 11.6207 19.832 11.6207M22.9774 28.3305C25.1223 29.0215 26.6132 31.036 26.6132 33.3522C26.6132 35.6684 25.132 37.6829 22.9774 38.3739V28.3305ZM22.9774 14.9004C25.1223 15.5816 26.6132 17.5961 26.6132 19.9318C26.6132 22.2675 25.132 24.2528 22.9774 24.9438V14.8906V14.9004Z" fill="#B60005"/>
<path d="M14.0424 13.4989V28.3889H17.1781V13.4989L26.162 4.39954H21.7277L15.6102 10.5891L9.50231 4.39954H5.04883L14.0424 13.4989Z" fill="#B60005"/>
</g>
<defs>
<clipPath id="clip0_2080_4287">
<rect width="27.5" height="37.4004" fill="white" transform="translate(2.25 4.39954)"/>
</clipPath>
</defs>
</svg>
