<svg width="32" height="44" viewBox="0 0 32 44" fill="none" xmlns="http://www.w3.org/2000/svg">
<path d="M1.32222 4.80308C1.23181 5.7427 1.1296 7.18528 1.1296 9.00214C1.1296 16.9383 3.0754 31.3543 16.0021 39.1754C28.9289 31.3543 30.8747 16.9402 30.8747 9.00214C30.8747 7.18723 30.7744 5.7427 30.6821 4.80308H1.32222ZM31.6707 3.50476H0.333599C0.192087 4.45803 -3.30248 29.3931 16.0021 40.4951C35.3068 29.3931 31.8122 4.45803 31.6707 3.50476ZM16.0021 39.8362C2.53686 31.8982 0.563556 17.0201 0.563556 9.00214C0.563556 6.80124 0.710965 5.12668 0.811202 4.24749H31.195C31.2953 5.12668 31.4427 6.80124 31.4427 9.00214C31.4427 17.0201 29.4694 31.8982 16.0041 39.8382L16.0021 39.8362Z" fill="#155751"/>
<path d="M7.94672 14.5874H9.40508V14.0806H11.2428V16.4978H5.23047V14.5894H5.7179V9.92828H5.23047V8.02954H8.43021V9.92828H7.94278V14.5894L7.94672 14.5874ZM8.35553 8.10752H5.31105V9.84446H5.79652V14.679H5.31105V16.416H11.1563V14.1722H9.49352V14.679H7.87006V9.84446H8.35553V8.10752ZM7.49859 14.6576V15.0533H9.8532V14.5465H10.7966V16.03H5.68056V15.0553H6.16602V9.46042H5.68056V8.48571H7.98602V9.46042H7.49859V14.6595V14.6576Z" fill="white"/>
<path d="M17.4161 9.92828H17.0073L18.4853 14.5894H18.9708V16.4978H15.8477V14.5894H16.1209L15.9951 14.2034H14.4483L14.3225 14.5894H14.5859V16.4978H11.4824V14.5894H11.9679L13.4557 9.92828H13.0961V8.02954H17.4141V9.92828H17.4161ZM13.1747 9.84836H13.5638L12.0269 14.6829H11.5591V16.4199H14.5072V14.6829H14.2065L14.3815 14.1234H16.054L16.229 14.6829H15.9361V16.4199H18.8922V14.6829H18.4244L16.8874 9.84836H17.3355V8.11142H13.1727V9.84836H13.1747ZM16.968 9.46237H16.3941L18.047 14.6615L18.1826 15.0572H18.5226V16.0319H16.2958V15.0572H16.7537L16.3253 13.7375H14.1181L13.6994 15.0572H14.1377V16.0319H11.9305V15.0572H12.2804L13.9333 9.8581L14.0591 9.46237H13.5442V8.48766H16.968V9.46237ZM16.1032 13.0474L15.2168 10.2655L14.3323 13.0474H16.1032ZM15.5981 12.6711H14.8492L15.2187 11.5034L15.5981 12.6711ZM15.49 12.5892L15.2168 11.7763L14.9632 12.5892H15.488H15.49Z" fill="white"/>
<path d="M21.8764 12.7101V14.5894H22.3619V16.4978H19.1621V14.5894H19.6476V9.92828H19.1621V8.02954H21.7978L24.0345 11.9089V9.92828H23.5372V8.02954H26.7468V9.92828H26.2593V14.5894H26.7468V16.4978H24.062L21.8744 12.7101H21.8764ZM24.1131 16.416H26.6721V14.679H26.1866V9.84446H26.6721V8.10752H23.6178V9.84446H24.1131V12.2208L21.7506 8.10752H19.2407V9.84446H19.7282V14.679H19.2407V16.416H22.2852V14.679H21.7978V12.3943L24.1131 16.416ZM23.9873 9.46042V8.48571H26.3026V9.46042H25.8171V15.0553H26.3026V16.03H24.3764L21.4302 10.9225V15.0553H21.9157V16.03H19.6102V15.0553H20.0977V9.46042H19.6102V8.48571H21.4774L24.4629 13.6848L24.4826 13.7043V9.45847H23.9873V9.46042Z" fill="white"/>
<path d="M8.54631 22.2003V23.5006H9.03178V25.4091H5.83203V23.5006H6.3175V18.8395H5.83203V16.9408H10.8616L12.1549 18.2917V20.8513L10.8616 22.2023H8.54631V22.2003ZM12.0782 18.3307L10.8243 17.0207H5.91261V18.7577H6.40005V23.5922H5.91261V25.3292H8.95709V23.5922H8.46966V22.1204H10.8243L12.0782 20.8104V18.3327V18.3307ZM8.09819 21.7325V23.9665H8.58366V24.9412H6.27819V23.9665H6.76562V18.3717H6.27819V17.397H10.6258L11.7048 18.514V20.6155L10.6258 21.7325H8.09623H8.09819ZM10.3663 20.2295V18.9L9.8612 18.3717H8.10016V20.7578H9.8612L10.3663 20.2295ZM9.70396 18.7577L9.99681 19.0618V20.0677L9.70396 20.3815H8.46966V18.7577H9.70396ZM9.65482 20.2899L9.91819 20.015V19.1105L9.65482 18.8356H8.54631V20.288H9.65482V20.2899Z" fill="white"/>
<path d="M17.8598 25.4111H14.2807L12.9874 24.0601V18.8395H12.502V16.9408H15.7017V18.8395H15.2162V23.2374L15.4796 23.5006H16.6667L16.9203 23.2374V18.8395H16.4348V16.9408H19.6444V18.8395H19.1589V24.0601L17.8657 25.4111H17.8598ZM19.5618 18.7596V17.0227H16.5174V18.7596H17.0028V23.2881L16.7119 23.5922H15.4285L15.1376 23.2881V18.7596H15.6231V17.0227H12.5786V18.7596H13.066V24.0094L14.3298 25.3292H17.8224L19.0764 24.0094V18.7596H19.5618ZM17.6455 24.9432H14.5047L13.4355 23.8262V18.3736H12.9481V17.3989H15.2536V18.3736H14.7681V23.4519L15.2732 23.9704H16.8593L17.3743 23.4519V18.3736H16.877V17.3989H19.2022V18.3736H18.7167V23.8262L17.6475 24.9432H17.6455Z" fill="white"/>
<path d="M21.2698 22.1516L19.9766 20.8007V18.2917L21.2698 16.9408H24.8489L26.1422 18.2917V19.9566H23.9055V19.1144L23.652 18.8395H22.4648L22.2015 19.1144V19.9683L22.4648 20.2431H24.847L26.1402 21.6038V24.062L24.847 25.413H21.2679L19.9746 24.062V22.4362H22.2015V23.2394L22.4648 23.5026H23.652L23.9055 23.2394V22.4265L23.652 22.1516H21.2679H21.2698ZM23.9939 23.2881L23.7011 23.5922H22.4177L22.1248 23.2881V22.5162H20.0532V24.0094L21.317 25.3292H24.7998L26.0636 24.0094V21.6428L24.7998 20.323H22.4157L22.1228 20.0189V19.0637L22.4157 18.7596H23.6991L23.992 19.0637V19.8766H26.0636V18.3327L24.7998 17.0227H21.317L20.0532 18.3327V20.7597L21.317 22.0697H23.6991L23.992 22.3738V23.2881H23.9939ZM21.4939 21.6837L20.4247 20.5667V18.5159L21.4939 17.3989H24.6249L25.7039 18.5159V19.4906H24.3517V18.9019L23.8465 18.3736H22.2604L21.7553 18.9019V20.1807L22.2604 20.709H24.6249L25.7039 21.8261V23.8262L24.6249 24.9432H21.4939L20.4247 23.8262V22.8924H21.7573V23.4519L22.2624 23.9704H23.8485L24.3536 23.4519V22.214L23.8485 21.6857H21.4939V21.6837Z" fill="white"/>
<path d="M10.852 27.944L10.7537 28.0688V28.4704H10.4707V27.1331H10.7537V27.7042L11.1547 27.1331H11.5026L11.0348 27.7179L11.534 28.4704H11.1763L10.852 27.944Z" fill="white"/>
<path d="M11.6641 28.4704V27.1331H11.9487V28.4704H11.6641Z" fill="white"/>
<path d="M12.1289 28.4704V27.1331H12.5652C13.0212 27.1331 13.1411 27.4216 13.1411 27.8017C13.1411 28.1818 13.0232 28.4704 12.5652 28.4704H12.1289ZM12.4159 28.2111H12.5711C12.7814 28.2111 12.8424 28.061 12.8424 27.8037C12.8424 27.5463 12.7814 27.3962 12.5711 27.3962H12.4159V28.213V28.2111Z" fill="white"/>
<path d="M14.2189 28.0296C14.2189 28.361 14.0086 28.4799 13.6901 28.4799C13.5447 28.4799 13.3659 28.4546 13.2695 28.398V28.1056C13.3324 28.1407 13.4838 28.2089 13.6607 28.2089C13.8631 28.2089 13.9221 28.1466 13.9221 28.0549C13.9221 27.9536 13.8769 27.9185 13.7413 27.9009C13.3993 27.8561 13.2676 27.7567 13.2676 27.4935C13.2676 27.2518 13.417 27.09 13.7727 27.09C13.9555 27.09 14.0911 27.1212 14.154 27.1562V27.4331C14.0813 27.398 13.9299 27.3609 13.7943 27.3609C13.6449 27.3609 13.5624 27.4077 13.5624 27.4935C13.5624 27.589 13.6135 27.6202 13.755 27.6397C14.0538 27.6806 14.2169 27.7411 14.2169 28.0276L14.2189 28.0296Z" fill="white"/>
<path d="M15.5285 27.907H15.0096V28.2091H15.5816V28.4704H14.7227V27.1331H15.5816V27.3943H15.0096V27.6536H15.5285V27.9089V27.907Z" fill="white"/>
<path d="M16.4244 28.4704L15.99 27.6711L15.9979 28.4704H15.7129V27.1331H15.9979L16.4322 27.9323L16.4244 27.1331H16.7094V28.4704H16.4244Z" fill="white"/>
<path d="M16.8828 27.784C16.8828 27.318 17.0519 27.09 17.4607 27.09C17.6435 27.09 17.7771 27.1173 17.8577 27.1523V27.4311C17.7457 27.3843 17.6258 27.357 17.5137 27.357C17.2563 27.357 17.1718 27.4721 17.1718 27.784C17.1718 28.1173 17.2641 28.2109 17.5137 28.2109C17.5413 28.2109 17.5766 28.2109 17.5963 28.205V27.9341H17.4056V27.6787H17.8832V28.3863C17.8027 28.437 17.6435 28.478 17.4489 28.478C17.0479 28.478 16.8789 28.2499 16.8789 27.784H16.8828Z" fill="white"/>
<path d="M18.328 28.2091H18.8724V28.4704H18.0391V27.1331H18.326V28.2091H18.328Z" fill="white"/>
<path d="M19.0059 28.4704V27.1331H19.2905V28.4704H19.0059Z" fill="white"/>
<path d="M20.381 28.0296C20.381 28.361 20.1706 28.4799 19.8522 28.4799C19.7068 28.4799 19.5279 28.4546 19.4316 28.398V28.1056C19.4945 28.1407 19.6459 28.2089 19.8228 28.2089C20.0252 28.2089 20.0861 28.1466 20.0861 28.0549C20.0861 27.9536 20.0409 27.9185 19.9053 27.9009C19.5633 27.8561 19.4316 27.7567 19.4316 27.4935C19.4316 27.2518 19.581 27.09 19.9368 27.09C20.1195 27.09 20.2552 27.1212 20.3181 27.1562V27.4331C20.2453 27.398 20.096 27.3609 19.9584 27.3609C19.809 27.3609 19.7265 27.4077 19.7265 27.4935C19.7265 27.589 19.7795 27.6202 19.9191 27.6397C20.2178 27.6806 20.381 27.7411 20.381 28.0276V28.0296Z" fill="white"/>
<path d="M21.2485 28.4704V27.9109H20.8377V28.4704H20.5508V27.1331H20.8377V27.6497H21.2485V27.1331H21.5355V28.4704H21.2485Z" fill="white"/>
<path d="M15.887 30.5474L15.8948 33.2961C15.8948 33.2961 15.9027 33.3546 15.8516 33.3682C15.8005 33.3799 15.6708 33.3019 15.6708 33.3019C15.6708 33.3019 15.1303 33.105 14.405 33.3117C13.6798 33.5183 13.2886 33.2824 13.2886 33.2824C13.2886 33.2824 13.2611 33.2513 13.269 33.1869C13.2769 33.1226 13.7721 30.5084 13.7721 30.5084C13.7721 30.5084 13.7898 30.4558 13.8409 30.4655C13.892 30.4753 14.4384 30.6059 14.8551 30.4655C15.2737 30.3271 15.7769 30.3836 15.883 30.5474H15.887Z" fill="white"/>
<path d="M13.596 30.5851L13.1283 33.2363C13.1283 33.2363 13.1283 33.2597 13.1106 33.2811C13.0929 33.3026 12.975 33.4078 12.975 33.4078C12.975 33.4078 12.9258 33.4234 12.9278 33.3649C12.9298 33.3065 13.3681 30.7293 13.3681 30.7293C13.3681 30.7293 13.3681 30.7137 13.3995 30.6786L13.5626 30.5422C13.5626 30.5422 13.6098 30.5149 13.596 30.587V30.5851Z" fill="white"/>
<path d="M16.1196 30.5474L16.1118 33.2961C16.1118 33.2961 16.1039 33.3546 16.155 33.3682C16.2061 33.3799 16.3358 33.3019 16.3358 33.3019C16.3358 33.3019 16.8763 33.105 17.6016 33.3117C18.3268 33.5183 18.7179 33.2824 18.7179 33.2824C18.7179 33.2824 18.7455 33.2513 18.7376 33.1869C18.7297 33.1226 18.2344 30.5084 18.2344 30.5084C18.2344 30.5084 18.2168 30.4558 18.1657 30.4655C18.1146 30.4753 17.5682 30.6059 17.1515 30.4655C16.7328 30.3271 16.2277 30.3836 16.1236 30.5474H16.1196Z" fill="white"/>
<path d="M18.4205 30.5851L18.8863 33.2363C18.8863 33.2363 18.8863 33.2597 18.904 33.2811C18.9217 33.3026 19.0396 33.4078 19.0396 33.4078C19.0396 33.4078 19.0887 33.4234 19.0868 33.3649C19.0848 33.3065 18.6465 30.7293 18.6465 30.7293C18.6465 30.7293 18.6465 30.7137 18.6151 30.6786L18.4519 30.5422C18.4519 30.5422 18.4048 30.5149 18.4185 30.587L18.4205 30.5851Z" fill="white"/>
<path d="M18.893 33.5815L18.7142 33.4625C18.7142 33.4625 18.6807 33.4469 18.6513 33.4469C18.6218 33.4469 18.4272 33.521 18.266 33.521C18.266 33.521 17.7334 33.562 17.3698 33.4216C17.3698 33.4216 16.9787 33.2832 16.2416 33.4859C16.2416 33.4859 16.1866 33.5093 16.1787 33.523C16.1787 33.523 16.163 33.5425 16.2023 33.5698C16.2397 33.5951 16.393 33.7472 16.393 33.7472C16.393 33.7472 16.4146 33.8017 16.3812 33.8349C16.3537 33.8641 16.218 33.9324 16.0352 33.9421C16.0215 33.9421 16.0058 33.9421 15.99 33.9421C15.9743 33.9421 15.9606 33.9421 15.9468 33.9421C15.764 33.9324 15.6304 33.8641 15.6009 33.8349C15.5694 33.8017 15.5891 33.7472 15.5891 33.7472C15.5891 33.7472 15.7424 33.5971 15.7797 33.5698C15.8171 33.5444 15.8033 33.523 15.8033 33.523C15.7955 33.5113 15.7404 33.4859 15.7404 33.4859C15.0054 33.2832 14.6123 33.4216 14.6123 33.4216C14.2487 33.5639 13.716 33.521 13.716 33.521C13.5529 33.521 13.3603 33.4469 13.3308 33.4469C13.3013 33.4469 13.2679 33.4625 13.2679 33.4625L13.089 33.5815C13.0596 33.6088 13.0832 33.6263 13.0832 33.6263C13.148 33.7413 13.7887 33.8466 14.1799 33.7823C14.571 33.7179 14.8147 33.6575 15.1017 33.6887C15.3886 33.7199 15.5262 33.8856 15.5262 33.8856C15.652 33.9811 15.8269 34.0084 15.9389 34.0162C15.9586 34.0162 15.9783 34.0181 15.992 34.0181C16.0077 34.0181 16.0254 34.0181 16.047 34.0162C16.1591 34.0084 16.334 33.9791 16.4598 33.8856C16.4598 33.8856 16.5954 33.7199 16.8843 33.6887C17.1713 33.6575 17.415 33.7179 17.8061 33.7823C18.1972 33.8466 18.838 33.7433 18.9028 33.6263C18.9028 33.6263 18.9264 33.6068 18.8969 33.5815H18.893Z" fill="white"/>
</svg>
