<svg width="32" height="44" viewBox="0 0 32 44" fill="none" xmlns="http://www.w3.org/2000/svg">
<path d="M3.4043 28.6829C11.7973 25.9708 20.1653 25.9708 28.5625 28.6787C28.2697 29.2612 27.9914 29.8437 27.6903 30.4159C26.432 32.7954 24.8643 34.9559 22.9685 36.8748C20.9357 38.9321 18.6205 40.6155 16.0623 41.9684C16.0145 41.9932 15.9294 41.9808 15.8775 41.954C14.1914 41.072 12.6112 40.0289 11.139 38.8247C8.15519 36.3853 5.80882 33.4377 4.06045 30.0151C3.8362 29.5773 3.6244 29.1332 3.4043 28.6829Z" fill="#2F3055"/>
<path d="M0.822393 20.219C0.689501 19.3432 0.548303 18.486 0.434098 17.6246C0.332353 16.8501 0.251372 16.0734 0.189078 15.2968C0.120556 14.4582 0.0665685 13.6196 0.0395748 12.7789C0.00635173 11.711 0.00427528 10.6431 0.000122399 9.57524C-0.00195404 9.11049 0.0229633 8.64575 0.031269 8.181C0.031269 8.07566 0.0707214 8.04881 0.174543 8.03022C1.60936 7.77822 3.01719 7.42088 4.40633 6.98712C5.96366 6.50378 7.48984 5.93782 8.97865 5.27685C9.86529 4.88233 10.7499 4.48368 11.6116 4.04166C12.8824 3.39308 14.1345 2.70526 15.3886 2.03809V17.54C12.8927 17.5751 10.428 17.8209 7.98611 18.2753C5.55875 18.7276 3.18538 19.3762 0.820316 20.2169L0.822393 20.219Z" fill="#2F3055"/>
<path d="M31.1601 20.215C26.4528 18.5481 21.6251 17.6165 16.625 17.5525V2.01758C16.8119 2.12086 16.9863 2.22207 17.167 2.31915C18.4481 3.00491 19.7168 3.71752 21.0167 4.3661C22.7775 5.24602 24.6006 5.99167 26.4653 6.62993C28.008 7.1587 29.5799 7.59453 31.1788 7.92089C31.3989 7.96633 31.6211 8.01177 31.8453 8.03862C31.9574 8.05102 31.9844 8.09439 31.9844 8.19561C31.9886 9.25729 32.0135 10.319 31.9948 11.3807C31.9761 12.4424 31.9408 13.504 31.8661 14.5637C31.7934 15.6026 31.6813 16.6416 31.5546 17.6764C31.457 18.4799 31.3137 19.2772 31.1912 20.0766C31.185 20.1179 31.1746 20.1571 31.1601 20.215Z" fill="#2F3055"/>
<path d="M20.6691 19.964C20.611 19.7905 20.4989 19.7079 20.3203 19.6975C19.9922 19.6769 19.6662 19.648 19.3382 19.6273C19.0931 19.6108 18.846 19.5963 18.601 19.586C18.2542 19.5715 17.9075 19.5592 17.5586 19.5468C17.3095 19.5385 17.0582 19.5323 16.809 19.5261C16.6284 19.522 16.4457 19.522 16.265 19.522C16.1384 19.522 16.0221 19.6252 16.0138 19.7409C16.0096 19.8008 16.0055 19.8628 16.0034 19.9227C15.9972 20.0549 16.0698 20.1602 16.1986 20.1912C16.2692 20.2077 16.3439 20.2119 16.4166 20.2222C16.4997 20.2346 16.5848 20.249 16.6658 20.2656C16.7073 20.2738 16.7364 20.2986 16.7364 20.3461C16.7364 20.3916 16.7364 20.437 16.7364 20.4824C16.7301 20.8067 16.7218 21.129 16.7156 21.4533C16.7052 22.0316 16.6948 22.612 16.6845 23.1904C16.6782 23.5085 16.6762 23.8266 16.672 24.1467C16.672 24.2521 16.6512 24.2851 16.5495 24.3099C16.4436 24.3326 16.3356 24.345 16.2297 24.3574C16.1259 24.3698 16.0262 24.4359 16.0117 24.535C15.9972 24.6404 15.9951 24.7499 16.0117 24.8531C16.0262 24.9564 16.1259 25.0308 16.2297 25.0411C16.2858 25.0452 16.3418 25.0473 16.3979 25.0473C16.6284 25.0514 16.861 25.0535 17.0914 25.0617C17.4424 25.0721 17.7933 25.0865 18.1442 25.0989C18.3165 25.1051 18.4889 25.1113 18.6612 25.1217C18.8979 25.1361 19.1347 25.1526 19.3735 25.1692C19.5749 25.1836 19.7763 25.2001 19.9756 25.2167C20.1833 25.2353 20.3037 25.2043 20.4013 25.008C20.5176 24.7767 20.6359 24.5454 20.7543 24.314C20.8249 24.1777 20.8976 24.0434 20.964 23.905C21.0242 23.779 20.9827 23.6345 20.8664 23.5663C20.8166 23.5374 20.7667 23.5105 20.7148 23.4837C20.6089 23.432 20.474 23.4589 20.4013 23.5456C20.3764 23.5746 20.3535 23.6055 20.3265 23.6345C20.0961 23.8927 19.8261 24.1033 19.5084 24.2479C19.2364 24.3719 18.9478 24.4214 18.6508 24.4152C18.4349 24.4111 18.221 24.3966 18.0051 24.3843C17.9345 24.3801 17.8639 24.3698 17.7933 24.3553C17.6812 24.3305 17.6542 24.2975 17.6562 24.1839C17.6645 23.8658 17.677 23.5477 17.6832 23.2296C17.6874 23.0065 17.6832 22.7835 17.6832 22.5521C17.7185 22.5521 17.7351 22.5521 17.7517 22.5521C17.9282 22.5604 18.1047 22.5645 18.2792 22.5748C18.4162 22.5831 18.5553 22.5872 18.6924 22.6058C18.8979 22.6327 19.0121 22.7525 19.035 22.9508C19.0474 23.0582 19.0516 23.1676 19.0558 23.2751C19.0599 23.3949 19.1533 23.5043 19.2717 23.5209C19.3527 23.5312 19.4357 23.5374 19.5167 23.5332C19.5624 23.5312 19.6102 23.5105 19.6475 23.4837C19.741 23.4238 19.7534 23.3246 19.7597 23.2234C19.7701 23.0561 19.7846 22.8867 19.797 22.7194C19.8074 22.5686 19.8199 22.4179 19.8323 22.2671C19.8448 22.1039 19.8573 21.9428 19.8676 21.7796C19.878 21.6371 19.8905 21.4946 19.8926 21.352C19.8967 21.2136 19.795 21.0938 19.6558 21.0732C19.579 21.0629 19.498 21.0587 19.4212 21.067C19.2945 21.0773 19.2032 21.1806 19.1886 21.3087C19.1762 21.4099 19.1596 21.5132 19.1305 21.6123C19.0786 21.7899 18.9561 21.8746 18.7713 21.8705C18.5304 21.8664 18.2895 21.856 18.0487 21.8498C17.9407 21.8457 17.8348 21.8416 17.7248 21.8374C17.7248 21.825 17.7248 21.8147 17.7248 21.8044C17.731 21.5669 17.7372 21.3273 17.7434 21.0897C17.7497 20.8646 17.7538 20.6394 17.7621 20.4164C17.7663 20.3172 17.7954 20.2862 17.8909 20.2656C17.9116 20.2614 17.9345 20.2614 17.9573 20.2614C18.2148 20.2676 18.4744 20.2759 18.7318 20.2842C18.8564 20.2883 18.981 20.2904 19.1056 20.3069C19.4295 20.3482 19.6995 20.499 19.9341 20.72C20.1334 20.908 20.2933 21.1248 20.449 21.3479C20.5446 21.4842 20.6629 21.5297 20.8249 21.4801C20.9474 21.4429 21.0429 21.3748 21.072 21.2426C21.0865 21.1723 21.0761 21.1042 21.0512 21.0381C20.9246 20.6807 20.7937 20.3234 20.6733 19.964H20.6691Z" fill="#2F3055"/>
<path d="M26.3267 22.2683C26.1959 21.6218 25.899 21.0703 25.3757 20.6531C24.894 20.2689 24.3458 20.0665 23.7976 20.052C23.345 20.0561 22.9816 20.1388 22.641 20.3164C22.0887 20.6056 21.7004 21.0517 21.4263 21.5991C21.2332 21.9853 21.1377 22.3985 21.119 22.826C21.0962 23.3073 21.1771 23.772 21.3578 24.2182C21.5135 24.6086 21.7378 24.9535 22.0534 25.2344C22.4022 25.5463 22.8113 25.726 23.2764 25.7839C23.5734 25.8211 23.8682 25.8087 24.1568 25.7364C24.8192 25.5711 25.3466 25.2055 25.7495 24.6623C26.009 24.3111 26.1938 23.9228 26.2956 23.4953C26.3911 23.0883 26.4098 22.6794 26.3267 22.2725V22.2683ZM25.0435 23.2205C24.8545 24.3834 24.1195 25.2324 23.4052 25.1188C22.6888 25.0031 22.2631 23.9662 22.4521 22.8033C22.641 21.6404 23.3761 20.7915 24.0904 20.9051C24.8068 21.0207 25.2324 22.0576 25.0435 23.2205Z" fill="#2F3055"/>
<path d="M8.07142 24.7705C7.77656 24.6239 7.55023 24.3574 7.3675 24.0848C7.17855 23.8039 7.0332 23.494 6.94806 23.1677C6.84632 22.7732 6.83801 22.3518 6.91484 21.9511C6.97713 21.6268 7.11833 21.3025 7.3592 21.0691C7.63121 20.8068 7.96967 20.7531 8.33513 20.8006C8.65697 20.8419 8.9456 20.9782 9.21761 21.1496C9.40242 21.2653 9.55815 21.4182 9.72011 21.5607C9.80732 21.635 9.90284 21.6825 10.017 21.6536C10.0793 21.6392 10.1375 21.5999 10.1935 21.5648C10.3368 21.476 10.37 21.3355 10.2849 21.1909C10.0565 20.8026 9.82809 20.4143 9.59968 20.026C9.52908 19.9062 9.38373 19.8442 9.23838 19.9165C9.10964 19.9785 8.97882 20.0363 8.84801 20.0941C8.81271 20.1086 8.7691 20.121 8.73173 20.1169C8.55315 20.0962 8.37665 20.0611 8.19393 20.0776C7.98836 20.0983 7.78072 20.1065 7.57722 20.1417C7.04773 20.2305 6.6096 20.4887 6.26907 20.9018C5.83094 21.4306 5.62537 22.042 5.61914 22.7876C5.62329 22.8578 5.62952 22.9921 5.64406 23.1222C5.68143 23.4362 5.75826 23.7398 5.887 24.029C6.12787 24.5805 6.48502 25.039 6.98751 25.3778C7.34466 25.6195 7.74334 25.7537 8.17524 25.7868C8.50955 25.8136 8.83762 25.7868 9.1574 25.6773C9.59552 25.5265 9.94437 25.258 10.233 24.9007C10.4863 24.5867 10.64 24.2273 10.7708 23.8534C10.8206 23.7109 10.7417 23.5766 10.5943 23.5291C10.5507 23.5147 10.5071 23.5044 10.4635 23.4899C10.3119 23.4403 10.1749 23.5044 10.1229 23.6531C10.0025 23.9939 9.82393 24.2913 9.54154 24.5268C9.14909 24.8552 8.55315 25.0081 8.07142 24.7685V24.7705Z" fill="#2F3055"/>
<path d="M15.8432 24.6621C15.8515 24.501 15.7518 24.377 15.594 24.3522C15.5213 24.3419 15.4466 24.3357 15.3718 24.3316C15.2327 24.3275 15.133 24.2614 15.0603 24.1478C14.7302 23.6334 14.4 23.1191 14.0699 22.6048C14.0553 22.5821 14.0366 22.5594 14.02 22.5346C14.2568 22.4705 14.481 22.3652 14.6783 22.2061C15.052 21.9046 15.2742 21.5286 15.268 21.0391C15.2617 20.6012 15.0915 20.2418 14.7302 19.9857C14.2837 19.6676 13.775 19.5664 13.2351 19.587C13.0711 19.5932 12.9071 19.6098 12.743 19.6201C12.5271 19.6345 12.3132 19.6469 12.0973 19.6635C11.8419 19.6841 11.5864 19.7068 11.331 19.7316C11.0653 19.7564 10.8016 19.7853 10.5358 19.8143C10.434 19.8246 10.3281 19.9217 10.3281 20.0229C10.3281 20.1303 10.3427 20.2398 10.3697 20.343C10.3966 20.4401 10.5295 20.5083 10.6168 20.5041C10.7642 20.4979 10.9137 20.5041 11.0611 20.5041C11.1047 20.5041 11.113 20.5289 11.1172 20.5661C11.1255 20.6549 11.1359 20.7458 11.1442 20.8346C11.1587 20.9916 11.1732 21.1486 11.1878 21.3056C11.2002 21.4295 11.2106 21.5514 11.221 21.6753C11.2335 21.8013 11.2459 21.9252 11.2584 22.0512C11.2708 22.1731 11.2791 22.2929 11.2895 22.4148C11.302 22.547 11.3165 22.6771 11.329 22.8093C11.3414 22.9394 11.3539 23.0695 11.3663 23.1997C11.3767 23.3174 11.3892 23.4372 11.4016 23.5549C11.4141 23.6871 11.4245 23.8193 11.4349 23.9515C11.4473 24.1085 11.4619 24.2655 11.4743 24.4245C11.4785 24.4948 11.4639 24.5175 11.3975 24.5381C11.3061 24.5671 11.2127 24.5898 11.1172 24.6104C11.0341 24.629 10.9573 24.6538 10.9033 24.7261C10.8555 24.7901 10.8472 24.8624 10.8576 24.9347C10.868 25.0091 10.8742 25.0896 10.9075 25.1537C10.9718 25.2755 11.0985 25.3168 11.2459 25.2962C11.4245 25.2714 11.6051 25.2549 11.7858 25.2384C11.9685 25.2218 12.1512 25.2094 12.3319 25.1929C12.5271 25.1764 12.7202 25.1578 12.9133 25.1454C13.0586 25.1351 13.1666 25.0318 13.1708 24.8852C13.1708 24.8273 13.1708 24.7695 13.1708 24.7116C13.1666 24.565 13.0545 24.4576 12.9071 24.4535C12.824 24.4514 12.7389 24.4535 12.6558 24.4411C12.5084 24.4225 12.4793 24.408 12.4544 24.2944C12.4461 24.2552 12.4419 24.2139 12.4399 24.1746C12.4274 24.0135 12.417 23.8524 12.4046 23.6913C12.39 23.5136 12.3734 23.336 12.3568 23.1584C12.3443 23.0076 12.3298 22.8423 12.3153 22.6895C12.4772 22.6771 12.7306 22.6585 12.8925 22.6502C12.9112 22.6502 12.9382 22.6626 12.9486 22.6792C13.2331 23.117 13.5155 23.5529 13.7958 23.9928C13.9889 24.2944 14.1778 24.598 14.3689 24.8996C14.4353 25.007 14.535 25.0607 14.6596 25.0607C14.7634 25.0607 14.8672 25.0504 14.971 25.0483C15.16 25.0442 15.3469 25.0421 15.5358 25.038C15.7123 25.0359 15.8494 24.9161 15.8307 24.7364C15.8286 24.7116 15.8307 24.6848 15.8328 24.66L15.8432 24.6621ZM13.7314 21.7414C13.6484 21.8426 13.5279 21.9046 13.3992 21.9128L12.2696 21.9934L12.145 20.4071L13.2144 20.3265C13.393 20.3141 13.5694 20.374 13.6982 20.5C14.209 20.9957 13.9328 21.4935 13.7314 21.7414Z" fill="#2F3055"/>
<path d="M16.0093 36.9741C16.709 36.9865 17.3756 37.0981 17.9985 37.3418C18.0525 37.3624 18.1044 37.3852 18.1522 37.412C18.2664 37.476 18.229 37.6 18.1376 37.6516C18.1003 37.6723 18.067 37.6599 18.0317 37.6475C17.8303 37.5814 17.6289 37.5091 17.4233 37.4513C17.1326 37.3707 16.8316 37.3191 16.5242 37.3005C16.2958 37.286 16.0653 37.2716 15.8369 37.2757C15.1829 37.2901 14.5578 37.4017 13.9764 37.631C13.9079 37.6578 13.8602 37.6475 13.8207 37.5979C13.7501 37.5112 13.773 37.4223 13.8996 37.3728C14.0969 37.2984 14.2983 37.2282 14.5039 37.1683C14.7842 37.0877 15.0749 37.0382 15.3739 37.0134C15.5857 36.9968 15.7996 36.9865 16.0134 36.9741H16.0093Z" fill="#E8E6E9"/>
<path d="M16.1525 29.3905C16.1837 29.3988 16.2169 29.407 16.248 29.4174C16.3996 29.4587 16.4266 29.5062 16.3726 29.6508C16.3228 29.7809 16.2729 29.909 16.219 30.0494C16.3581 29.9957 16.4868 29.9461 16.6176 29.8986C16.763 29.8449 16.8191 29.8718 16.8544 30.0226C16.8938 30.1961 16.8959 30.3716 16.844 30.5451C16.8066 30.667 16.7588 30.6939 16.6384 30.6484C16.5014 30.5988 16.3685 30.5431 16.219 30.4852C16.2626 30.603 16.302 30.7104 16.3456 30.8178C16.437 31.0429 16.4266 31.0966 16.1525 31.1359C16.0155 31.1545 15.868 31.1318 15.7268 31.107C15.596 31.0842 15.5732 31.0223 15.6189 30.9004C15.6687 30.7682 15.7206 30.636 15.7788 30.4873C15.677 30.5245 15.5877 30.5575 15.4964 30.5926C15.4403 30.6133 15.3863 30.636 15.3302 30.6505C15.2389 30.6773 15.1911 30.6546 15.16 30.5658C15.1081 30.4171 15.1122 30.2642 15.1268 30.1093C15.1309 30.0701 15.1434 30.0329 15.1537 29.9957C15.1932 29.8635 15.2389 29.8408 15.3697 29.8904C15.4839 29.9337 15.5981 29.9792 15.7144 30.0226C15.731 30.0288 15.7497 30.035 15.7808 30.0453C15.731 29.911 15.6832 29.7892 15.6376 29.6652C15.5753 29.4958 15.6085 29.438 15.7871 29.407C15.8078 29.4029 15.8286 29.3967 15.8514 29.3905C15.9532 29.3905 16.0549 29.3905 16.1567 29.3905H16.1525Z" fill="#E8E6E9"/>
<path d="M20.3502 33.7995C20.3149 33.911 20.2879 34.0287 20.2402 34.1362C20.1363 34.3716 19.964 34.5596 19.7771 34.7331C19.5342 34.9562 19.2892 35.1731 19.0441 35.3941C18.9985 35.4354 18.9424 35.4581 18.8843 35.4312C18.8157 35.3961 18.7451 35.3569 18.6891 35.3073C18.6309 35.2557 18.633 35.1978 18.6911 35.1276C18.7929 35.0037 18.8988 34.8818 19.0088 34.7641C19.1999 34.5555 19.4013 34.3551 19.5425 34.1072C19.6193 33.973 19.6775 33.8325 19.6795 33.6714C19.6795 33.4235 19.5279 33.25 19.2933 33.1963C19.2123 33.1777 19.1251 33.1777 19.0421 33.1798C18.9237 33.1839 18.8926 33.1612 18.8967 33.0414C18.8988 32.9733 18.905 32.9051 18.9112 32.839C18.9154 32.7832 18.9486 32.7481 19.0005 32.7336C19.3909 32.6407 19.7481 32.7047 20.0554 32.9712C20.2194 33.1137 20.317 33.2975 20.3398 33.5165C20.3398 33.5268 20.3461 33.5351 20.3502 33.5433C20.3502 33.6301 20.3502 33.7168 20.3502 33.8036V33.7995Z" fill="#E8E6E9"/>
<path d="M11.6172 33.5173C11.6317 33.4574 11.6421 33.3975 11.6608 33.3418C11.775 33.0051 12.02 32.8109 12.3564 32.7159C12.5578 32.6601 12.7592 32.6601 12.9627 32.7159C13.0437 32.7386 13.0645 32.7655 13.0665 32.846C13.0665 32.9183 13.0769 32.9906 13.0769 33.0608C13.0769 33.1373 13.0499 33.1683 12.971 33.1621C12.8381 33.1517 12.7073 33.1559 12.5827 33.2096C12.3647 33.3025 12.2547 33.5153 12.2983 33.7466C12.3398 33.9697 12.4498 34.1576 12.591 34.3291C12.7219 34.4881 12.8651 34.6389 13.0001 34.7938C13.0894 34.8971 13.1807 34.9983 13.2638 35.1057C13.3365 35.2007 13.324 35.2627 13.2244 35.3329C13.1807 35.3639 13.1351 35.3908 13.0852 35.4135C13.0229 35.4424 12.9627 35.4259 12.9129 35.3804C12.6492 35.1388 12.3834 34.8992 12.1238 34.6534C11.9058 34.4468 11.7293 34.2093 11.6525 33.9139C11.64 33.8643 11.6296 33.8148 11.6172 33.7652C11.6172 33.6826 11.6172 33.6 11.6172 33.5173Z" fill="#E8E6E9"/>
<path d="M15.8356 34.7322C16.8157 34.7446 17.613 34.9181 18.3543 35.3105C18.5038 35.389 18.645 35.484 18.78 35.5832C18.8734 35.6534 18.8776 35.8269 18.8049 35.9219C18.7571 35.9839 18.7177 35.9901 18.6512 35.9488C18.128 35.6162 17.5549 35.4055 16.9465 35.2899C16.5395 35.2134 16.1284 35.1845 15.7172 35.2031C14.8514 35.2444 14.0395 35.4675 13.2982 35.924C13.2172 35.9736 13.1632 35.955 13.1217 35.8682C13.0594 35.736 13.0947 35.5997 13.2255 35.5109C13.483 35.3353 13.7633 35.199 14.0519 35.0833C14.3862 34.9511 14.7309 34.854 15.086 34.8045C15.3829 34.7611 15.6819 34.7446 15.8377 34.7301L15.8356 34.7322Z" fill="#E8E6E9"/>
<path d="M13.2246 32.9012C13.2329 32.4984 13.3347 32.2155 13.5797 31.9944C13.7541 31.8375 13.9638 31.7528 14.1985 31.7259C14.5141 31.6908 14.8048 31.7672 15.0747 31.9284C15.137 31.9655 15.1952 32.0089 15.2533 32.0502C15.3218 32.0998 15.3613 32.1638 15.3675 32.2526C15.3737 32.3415 15.3924 32.4282 15.3986 32.515C15.4028 32.5873 15.3592 32.612 15.2969 32.5728C15.2533 32.5459 15.2159 32.5088 15.1744 32.4798C14.9958 32.3477 14.8006 32.263 14.5743 32.263C14.1985 32.263 13.9493 32.515 13.9514 32.8868C13.9514 33.0644 14.0054 33.2255 14.0822 33.3825C14.2711 33.7626 14.4622 34.1426 14.6532 34.5206C14.7383 34.69 14.7238 34.7272 14.539 34.7788C14.5162 34.785 14.4954 34.7933 14.4746 34.7974C14.3604 34.8222 14.3064 34.8015 14.2421 34.7044C13.968 34.2872 13.6918 33.87 13.4198 33.4507C13.2952 33.2586 13.2184 33.052 13.2267 32.8992L13.2246 32.9012Z" fill="#E8E6E9"/>
<path d="M18.7467 32.8417C18.755 33.1041 18.6428 33.3292 18.4996 33.544C18.2421 33.9282 17.9846 34.3145 17.7271 34.6987C17.6565 34.8061 17.6046 34.8267 17.4759 34.7916C17.424 34.7772 17.3721 34.7648 17.3243 34.742C17.262 34.7152 17.2433 34.6739 17.2703 34.6119C17.3305 34.4797 17.397 34.3517 17.4634 34.2215C17.6233 33.9034 17.7894 33.5895 17.941 33.2693C18.0324 33.0731 18.0635 32.8624 17.9929 32.6517C17.9202 32.4369 17.7624 32.315 17.5444 32.2737C17.2703 32.2221 17.0315 32.313 16.8135 32.47C16.7699 32.5009 16.7304 32.5381 16.6848 32.565C16.6204 32.6021 16.5747 32.5774 16.583 32.5051C16.5955 32.3915 16.6079 32.2758 16.637 32.1663C16.6495 32.1188 16.6951 32.0713 16.7387 32.0403C16.9443 31.8813 17.1769 31.7718 17.4364 31.7326C17.9015 31.6623 18.3999 31.8358 18.6345 32.3047C18.7176 32.47 18.7529 32.6497 18.7487 32.8397L18.7467 32.8417Z" fill="#E8E6E9"/>
<path d="M15.9762 34.5965C15.9409 34.5965 15.9056 34.5965 15.8703 34.5965C15.7685 34.5924 15.7374 34.5697 15.7291 34.4664C15.7146 34.2929 15.7042 34.1173 15.6917 33.9417C15.6793 33.7682 15.6647 33.5927 15.6502 33.4192C15.6377 33.2601 15.6253 33.099 15.6087 32.94C15.5837 32.7045 15.5526 32.4711 15.5298 32.2356C15.5152 32.0766 15.4965 31.9155 15.5069 31.7564C15.5194 31.5664 15.6315 31.4321 15.8122 31.3681C15.997 31.302 16.1693 31.3288 16.3209 31.461C16.4683 31.5912 16.5015 31.7605 16.4808 31.9444C16.4517 32.2088 16.4143 32.4711 16.3852 32.7334C16.352 33.0267 16.323 33.3221 16.296 33.6175C16.271 33.8963 16.2503 34.1752 16.2295 34.454C16.2212 34.5614 16.188 34.5945 16.0779 34.5945C16.0447 34.5945 16.0115 34.5945 15.9783 34.5945L15.9762 34.5965Z" fill="#E8E6E9"/>
<path d="M15.1175 33.0909C15.1652 33.0951 15.2026 33.093 15.24 33.1013C15.4123 33.1384 15.4643 33.2211 15.4829 33.3904C15.5141 33.7023 15.5328 34.0142 15.5577 34.3261C15.5618 34.3778 15.5681 34.4294 15.5681 34.479C15.5681 34.5637 15.5349 34.605 15.4518 34.6174C15.3521 34.6318 15.2504 34.6422 15.1507 34.6545C15.1092 34.6607 15.0697 34.6669 15.0282 34.6752C14.9223 34.6959 14.887 34.6793 14.8392 34.5823C14.7043 34.3096 14.5693 34.039 14.4364 33.7664C14.4094 33.7106 14.3824 33.6569 14.3575 33.5991C14.3243 33.5185 14.3451 33.4462 14.4073 33.3863C14.5652 33.2314 14.7624 33.1508 14.9742 33.1054C15.0241 33.0951 15.076 33.093 15.1175 33.0889V33.0909Z" fill="#E8E6E9"/>
<path d="M16.8495 33.1005C17.1174 33.1171 17.3562 33.2079 17.5534 33.3918C17.6386 33.4703 17.651 33.5364 17.6012 33.6417C17.4994 33.8503 17.3935 34.0548 17.2897 34.2614C17.2336 34.3729 17.1776 34.4844 17.1215 34.596C17.0779 34.6827 17.0488 34.6993 16.9554 34.6848C16.8142 34.6662 16.673 34.6435 16.5339 34.6228C16.4238 34.6063 16.3927 34.5733 16.3968 34.4638C16.4031 34.3337 16.4155 34.2056 16.428 34.0755C16.4425 33.8958 16.4591 33.714 16.4757 33.5343C16.482 33.4599 16.4882 33.3856 16.5048 33.3153C16.5339 33.1852 16.6294 33.1109 16.7644 33.1005C16.7934 33.0985 16.8225 33.1005 16.8516 33.1005H16.8495Z" fill="#E8E6E9"/>
<path d="M13.4065 33.8678C13.4605 33.8967 13.5207 33.9153 13.5643 33.9546C13.7117 34.0805 13.8052 34.2499 13.9111 34.411C13.9817 34.5184 14.0502 34.63 14.1187 34.7395C14.1748 34.8303 14.1665 34.8758 14.0689 34.9192C13.9152 34.9873 13.7574 35.0514 13.6017 35.1154C13.5477 35.1381 13.4978 35.1257 13.4605 35.0823C13.3546 34.9584 13.2487 34.8345 13.1449 34.7105C13.0846 34.6403 13.0265 34.568 12.9704 34.4937C12.8832 34.3759 12.8791 34.2912 12.9621 34.1714C13.0576 34.033 13.1864 33.9401 13.3483 33.8905C13.365 33.8864 13.3816 33.8843 13.3961 33.8823C13.3982 33.8781 13.4023 33.874 13.4044 33.8699L13.4065 33.8678Z" fill="#E8E6E9"/>
<path d="M18.5904 33.9221C18.6195 33.9304 18.6527 33.9345 18.6818 33.9469C18.8064 34.0006 18.9164 34.077 18.9995 34.1865C19.0991 34.3187 19.1012 34.4261 18.9974 34.5542C18.852 34.7339 18.7025 34.9094 18.553 35.085C18.4762 35.1759 18.4347 35.1842 18.3246 35.1387C18.1855 35.0809 18.0485 35.021 17.9114 34.959C17.8138 34.9136 17.7972 34.8681 17.8574 34.7793C18.0048 34.5542 18.1543 34.329 18.308 34.1101C18.362 34.0336 18.4264 33.9614 18.526 33.9345C18.5468 33.9304 18.5655 33.9262 18.5904 33.92V33.9221Z" fill="#E8E6E9"/>
<path d="M16.5179 35.8727C16.5159 35.8975 16.5138 35.9201 16.5117 35.9449C16.4621 35.9408 16.4145 35.9366 16.3627 35.9325C16.371 35.9408 16.3772 35.949 16.3834 35.9552C16.4496 36.0191 16.4352 36.1202 16.3855 36.1759C16.3379 36.2295 16.2758 36.2543 16.2075 36.2708C16.1599 36.2831 16.1103 36.2831 16.0606 36.279C16.0275 36.2749 15.9944 36.2728 15.9654 36.2976C15.9468 36.3141 15.9385 36.3306 15.9427 36.3533C15.9468 36.3739 15.9613 36.3883 15.982 36.3925C16.0151 36.3966 16.0482 36.3986 16.0792 36.3986C16.1641 36.3986 16.2489 36.3986 16.3296 36.4213C16.3876 36.4378 16.4331 36.4708 16.4455 36.5327C16.46 36.6008 16.4331 36.6565 16.3793 36.6998C16.3358 36.7348 16.2841 36.7493 16.2303 36.7555C16.1868 36.7616 16.1434 36.7678 16.0999 36.7658C16.0275 36.7658 15.9551 36.7596 15.8847 36.7369C15.8557 36.7286 15.8288 36.7163 15.8081 36.6915C15.7792 36.6565 15.7812 36.6111 15.8164 36.5843C15.8288 36.574 15.8413 36.5678 15.8557 36.5616C15.8702 36.5554 15.8847 36.5513 15.8992 36.5451C15.8847 36.5368 15.8682 36.5286 15.8537 36.5183C15.7874 36.4729 15.7812 36.3883 15.8392 36.3326C15.8702 36.3038 15.9054 36.2831 15.9427 36.2666C15.9489 36.2646 15.953 36.2625 15.9613 36.2584C15.9364 36.2481 15.9116 36.2398 15.8888 36.2295C15.8495 36.213 15.8164 36.1883 15.7916 36.1553C15.7378 36.0831 15.7419 35.9923 15.8019 35.9263C15.8557 35.8645 15.9282 35.8356 16.0068 35.8253C16.0854 35.815 16.162 35.8232 16.2365 35.848C16.2531 35.8541 16.2717 35.8521 16.2903 35.8541C16.3379 35.8562 16.3876 35.8583 16.4352 35.8624C16.46 35.8624 16.4848 35.8686 16.5097 35.8706L16.5179 35.8727ZM15.9882 36.0583C15.9882 36.0583 15.9902 36.0583 15.9923 36.0583C15.9923 36.0748 15.9923 36.0913 15.9923 36.1058C15.9965 36.1326 16.0006 36.1615 16.0109 36.1862C16.0399 36.2501 16.1144 36.2563 16.1599 36.2213C16.1806 36.2048 16.193 36.1821 16.1993 36.1573C16.2158 36.0934 16.2158 36.0274 16.2055 35.9614C16.1993 35.9181 16.1806 35.881 16.133 35.8686C16.0689 35.85 16.013 35.8871 15.9985 35.9552C15.9923 35.9882 15.9902 36.0233 15.9861 36.0583H15.9882ZM16.1248 36.7286C16.1765 36.7266 16.2282 36.7225 16.2758 36.7039C16.3007 36.6936 16.3213 36.6791 16.3276 36.6523C16.3358 36.6214 16.3131 36.5905 16.2758 36.5843C16.2282 36.576 16.1786 36.574 16.1289 36.5698C16.1103 36.5698 16.0896 36.5698 16.071 36.5698C16.0358 36.5698 16.0006 36.5698 15.9675 36.576C15.9427 36.5801 15.922 36.5946 15.9157 36.6214C15.9095 36.6503 15.9199 36.675 15.9468 36.6895C15.9633 36.6998 15.984 36.7101 16.0027 36.7142C16.0441 36.7225 16.0854 36.7245 16.1248 36.7286Z" fill="#E8E6E9"/>
<path d="M14.8457 36.411C14.8498 36.4234 14.8519 36.4337 14.8561 36.442C14.8685 36.473 14.8602 36.4998 14.8395 36.5267C14.7668 36.6238 14.6754 36.694 14.5612 36.7374C14.4512 36.7807 14.339 36.8097 14.2207 36.8035C14.0421 36.7952 13.8967 36.725 13.8054 36.5659C13.7618 36.4916 13.7514 36.4089 13.7659 36.3243C13.7908 36.1611 13.8864 36.0413 14.0172 35.9483C14.1314 35.8657 14.2601 35.8203 14.4013 35.8079C14.4532 35.8037 14.5031 35.8037 14.555 35.8017C14.5882 35.8017 14.6173 35.7914 14.636 35.7604C14.6401 35.7521 14.6422 35.7438 14.6443 35.7356C14.6484 35.7067 14.6484 35.7067 14.6796 35.7067C14.7003 35.7893 14.7211 35.8719 14.7439 35.9525C14.7481 35.9649 14.7522 35.9793 14.7543 35.9917C14.7543 35.9979 14.7543 36.0103 14.7522 36.0103C14.7398 36.0124 14.7294 36.0227 14.7169 36.0041C14.7024 35.9814 14.6858 35.9607 14.665 35.9421C14.5903 35.874 14.501 35.8513 14.4034 35.8575C14.3017 35.8636 14.2082 35.9008 14.1335 35.9711C14.0795 36.0206 14.0379 36.0805 14.0255 36.1549C14.013 36.2354 14.0255 36.3139 14.0566 36.3883C14.0899 36.4668 14.1335 36.5391 14.1937 36.601C14.2767 36.6857 14.3743 36.7147 14.4906 36.6899C14.6422 36.6568 14.7522 36.568 14.827 36.4358C14.8311 36.4275 14.8374 36.4193 14.8436 36.409L14.8457 36.411Z" fill="#E8E6E9"/>
<path d="M17.9332 36.8693C17.7883 36.8548 17.66 36.8074 17.5938 36.6651C17.5276 36.5248 17.5628 36.3578 17.6766 36.2608C17.7532 36.1948 17.8421 36.1721 17.9415 36.1907C18.0387 36.2093 18.1215 36.2505 18.1898 36.3248C18.2788 36.4196 18.2995 36.5434 18.2436 36.6609C18.1898 36.7764 18.1029 36.8486 17.9746 36.8672C17.9684 36.8672 17.9601 36.8672 17.9518 36.8672C17.9456 36.8672 17.9373 36.8672 17.9311 36.8672L17.9332 36.8693ZM17.7387 36.6981C17.7387 36.7434 17.7552 36.7744 17.7966 36.7929C17.8359 36.8094 17.869 36.8033 17.9001 36.7764C17.9146 36.762 17.9291 36.7455 17.9394 36.7269C17.9849 36.6362 18.0284 36.5434 18.0718 36.4506C18.0843 36.4217 18.0905 36.3908 18.0884 36.3578C18.0863 36.3124 18.0636 36.2835 18.0201 36.2649C17.9767 36.2484 17.9373 36.2526 17.9084 36.2835C17.8897 36.3021 17.8753 36.3248 17.8628 36.3495C17.8318 36.4176 17.8008 36.4856 17.7739 36.5537C17.7552 36.6011 17.7387 36.6486 17.7387 36.7001V36.6981Z" fill="#E8E6E9"/>
<path d="M15.3033 36.5424C15.1253 36.5548 14.9929 36.4228 14.9598 36.2825C14.9142 36.101 15.0198 35.9299 15.2081 35.8865C15.295 35.8659 15.3798 35.868 15.4647 35.901C15.5599 35.9381 15.6178 36.0103 15.6406 36.1072C15.6716 36.2413 15.6447 36.363 15.5392 36.4579C15.4874 36.5053 15.4233 36.528 15.3529 36.5383C15.3364 36.5404 15.3219 36.5424 15.3053 36.5445L15.3033 36.5424ZM15.4295 36.3485H15.4274C15.4274 36.332 15.4274 36.3176 15.4274 36.3011C15.4192 36.2289 15.4129 36.1567 15.4026 36.0845C15.3964 36.0474 15.384 36.0103 15.3695 35.9752C15.3509 35.934 15.3053 35.9134 15.264 35.9216C15.2122 35.9299 15.1791 35.9587 15.175 36.0082C15.1708 36.0474 15.175 36.0887 15.177 36.1299C15.1812 36.1753 15.1874 36.2186 15.1977 36.2619C15.2102 36.3176 15.2246 36.3754 15.2433 36.429C15.2557 36.4682 15.3033 36.495 15.3405 36.4909C15.3881 36.4847 15.4212 36.4599 15.4295 36.4063C15.4316 36.3857 15.4336 36.3671 15.4357 36.3465L15.4295 36.3485Z" fill="#E8E6E9"/>
<path d="M17.3935 36.0534C17.3749 36.1235 17.3562 36.1874 17.3376 36.2534C17.3169 36.3235 17.2983 36.3957 17.2797 36.4659C17.2755 36.4844 17.2714 36.5051 17.2859 36.5216C17.3024 36.5442 17.3273 36.5525 17.3562 36.5422C17.379 36.5339 17.3997 36.5216 17.4225 36.5092C17.4266 36.5133 17.4328 36.5195 17.439 36.5257C17.379 36.5875 17.3107 36.6164 17.2259 36.5979C17.1907 36.5896 17.1576 36.5772 17.1307 36.5545C17.0769 36.5092 17.0582 36.4535 17.0748 36.3834C17.0996 36.2885 17.1183 36.1936 17.141 36.0987C17.1493 36.0637 17.1555 36.0286 17.1638 35.9936C17.1307 35.9874 17.0976 35.9791 17.0645 35.9729C17.0645 35.9585 17.0665 35.9502 17.0831 35.944C17.1969 35.909 17.3024 35.8615 17.3997 35.7914C17.41 35.7832 17.4204 35.7749 17.4307 35.7667C17.4369 35.7625 17.4452 35.7584 17.4535 35.7584C17.4638 35.7584 17.4721 35.7625 17.468 35.779C17.4494 35.843 17.4328 35.9069 17.4142 35.9709C17.4142 35.975 17.4142 35.9791 17.4121 35.9832C17.4721 36.0018 17.5321 36.0183 17.5942 36.0369C17.5859 36.0595 17.5797 36.0802 17.5735 36.1008C17.5135 36.0822 17.4556 36.0657 17.3935 36.0472V36.0534Z" fill="#E8E6E9"/>
<path d="M16.913 36.527C16.913 36.527 16.9089 36.5415 16.9068 36.5497C16.8573 36.5415 16.8099 36.5312 16.7604 36.5229C16.7233 36.5167 16.6861 36.5105 16.6469 36.5064C16.6119 36.5023 16.5789 36.5002 16.5438 36.494C16.5397 36.494 16.5335 36.4858 16.5356 36.4817C16.5356 36.4775 16.5418 36.4693 16.5459 36.4693C16.5562 36.4672 16.5665 36.4693 16.5789 36.4652C16.6036 36.461 16.6201 36.4466 16.6243 36.4219C16.6304 36.3889 16.6346 36.3559 16.6408 36.3249C16.649 36.263 16.6573 36.1991 16.6655 36.1372C16.6696 36.1042 16.6738 36.0733 16.6779 36.0403C16.6799 36.0155 16.6841 35.9929 16.6841 35.9681C16.6841 35.9248 16.6676 35.9042 16.6263 35.8959C16.6181 35.8959 16.6098 35.8918 16.5995 35.8897C16.5995 35.8815 16.6016 35.8732 16.6036 35.8629C16.7129 35.8794 16.8223 35.8939 16.9316 35.9104C16.9171 35.9949 16.9027 36.0754 16.8883 36.1537C16.8738 36.2342 16.8614 36.3125 16.847 36.393C16.8429 36.4157 16.8408 36.4363 16.8388 36.459C16.8367 36.4858 16.8491 36.5023 16.8718 36.5126C16.8841 36.5167 16.8944 36.5209 16.9068 36.525L16.913 36.527Z" fill="#E8E6E9"/>
<path d="M16.8066 35.5823C16.8623 35.5823 16.9015 35.5946 16.9345 35.6256C16.9861 35.6751 16.9778 35.737 16.918 35.7741C16.8582 35.8091 16.7613 35.7906 16.718 35.7349C16.6829 35.6895 16.6932 35.6359 16.7427 35.605C16.7675 35.5905 16.7943 35.5823 16.8087 35.5823H16.8066Z" fill="#E8E6E9"/>
<path d="M9.242 15.4411C9.90438 15.344 10.5502 15.3523 11.1793 15.501C11.2333 15.5134 11.2873 15.5299 11.3371 15.5485C11.4555 15.596 11.441 15.7303 11.3641 15.7964C11.333 15.8232 11.2998 15.8149 11.2624 15.8087C11.061 15.7716 10.8595 15.7303 10.654 15.7034C10.3674 15.6683 10.0747 15.6621 9.78188 15.691C9.56385 15.7117 9.34375 15.7344 9.12987 15.7757C8.51525 15.8934 7.94838 16.1083 7.43965 16.4346C7.37943 16.4739 7.33375 16.4697 7.28599 16.4263C7.20501 16.3479 7.20917 16.2528 7.32129 16.1847C7.49364 16.0773 7.67013 15.9719 7.85494 15.879C8.10411 15.753 8.3699 15.6538 8.64606 15.5815C8.84332 15.5299 9.04266 15.4865 9.23992 15.439L9.242 15.4411Z" fill="#E8E6E9"/>
<path d="M8.12205 7.97021C8.15527 7.97435 8.18849 7.97641 8.22172 7.98054C8.37953 7.99707 8.41275 8.04044 8.3816 8.19123C8.35461 8.32755 8.32554 8.46181 8.29439 8.60847C8.42313 8.53411 8.54357 8.46388 8.664 8.39572C8.79897 8.31929 8.85918 8.33582 8.91733 8.4804C8.98377 8.64565 9.01492 8.81915 8.99208 8.99679C8.97547 9.12279 8.93186 9.1579 8.8052 9.13311C8.66192 9.10626 8.52073 9.07321 8.36499 9.04016C8.42729 9.14757 8.48335 9.24878 8.54357 9.34793C8.67023 9.55448 8.67023 9.61025 8.40444 9.69287C8.27155 9.73419 8.12205 9.73419 7.98085 9.73212C7.85003 9.73212 7.81474 9.67429 7.84173 9.54622C7.86872 9.40783 7.89987 9.26944 7.93102 9.11452C7.83758 9.16823 7.75244 9.21574 7.66731 9.26324C7.6154 9.29216 7.56556 9.32314 7.51365 9.34793C7.42644 9.38924 7.37661 9.37272 7.333 9.29216C7.25617 9.15377 7.23541 9.00092 7.2271 8.84807C7.22503 8.80882 7.22918 8.76958 7.23541 8.7324C7.25202 8.59607 7.29355 8.56509 7.43267 8.59401C7.5531 8.61673 7.67354 8.64358 7.79397 8.66837C7.81266 8.6725 7.83135 8.67456 7.86249 8.68076C7.79189 8.55683 7.72545 8.44322 7.659 8.32755C7.56972 8.17057 7.59463 8.10861 7.7649 8.04871C7.78567 8.04251 7.80435 8.03218 7.82512 8.02185C7.92479 8.00533 8.02653 7.99087 8.1262 7.97435L8.12205 7.97021Z" fill="#E8E6E9"/>
<path d="M12.9672 11.6581C12.9506 11.7738 12.9423 11.8936 12.9132 12.0072C12.8489 12.2571 12.7097 12.4699 12.5519 12.6702C12.3484 12.9284 12.1429 13.1825 11.9373 13.4386C11.8978 13.4861 11.848 13.5192 11.7857 13.5006C11.711 13.4779 11.6362 13.451 11.5718 13.4097C11.5054 13.3684 11.4992 13.3106 11.5449 13.2321C11.6258 13.0937 11.711 12.9574 11.7982 12.821C11.9518 12.5835 12.12 12.3563 12.2176 12.0878C12.2716 11.9432 12.3069 11.7945 12.282 11.6354C12.2446 11.3896 12.064 11.243 11.8252 11.2285C11.7421 11.2223 11.657 11.2368 11.5739 11.2533C11.4576 11.276 11.4223 11.2574 11.4078 11.1397C11.3995 11.0715 11.3933 11.0054 11.3891 10.9373C11.385 10.8815 11.4099 10.8402 11.4618 10.8195C11.8314 10.6646 12.1948 10.6708 12.5415 10.8836C12.7263 10.9972 12.853 11.1645 12.9111 11.3752C12.9132 11.3834 12.9215 11.3917 12.9257 11.3999C12.9402 11.4846 12.9527 11.5714 12.9672 11.6561V11.6581Z" fill="#E8E6E9"/>
<path d="M4.30469 12.7454C4.30884 12.6855 4.30884 12.6235 4.31922 12.5636C4.37736 12.2125 4.58916 11.9812 4.9027 11.8345C5.09166 11.7478 5.29307 11.7147 5.50072 11.7374C5.58377 11.7457 5.60869 11.7705 5.62323 11.849C5.63776 11.9192 5.65645 11.9894 5.66891 12.0597C5.68344 12.1361 5.65853 12.1691 5.5817 12.1753C5.44881 12.1857 5.32007 12.2104 5.20586 12.2848C5.00652 12.4129 4.93177 12.6401 5.01068 12.8611C5.08751 13.0759 5.22663 13.2432 5.39274 13.3899C5.5464 13.5262 5.71251 13.6501 5.8724 13.7823C5.9783 13.8691 6.0842 13.9558 6.18387 14.0488C6.27108 14.1314 6.269 14.1934 6.18387 14.2801C6.14649 14.3173 6.10496 14.3524 6.06136 14.3813C6.00322 14.4185 5.943 14.4123 5.88693 14.3751C5.58793 14.1789 5.28684 13.9868 4.98991 13.7844C4.74282 13.615 4.52894 13.4105 4.40436 13.1296C4.38359 13.0842 4.3649 13.0367 4.34622 12.9891C4.33376 12.9086 4.31922 12.826 4.30676 12.7454H4.30469Z" fill="#E8E6E9"/>
<path d="M8.65294 13.2975C9.62264 13.1529 10.4366 13.1963 11.234 13.4648C11.3938 13.5185 11.5475 13.5887 11.697 13.6672C11.8008 13.7209 11.834 13.8903 11.778 13.9956C11.7406 14.0638 11.7032 14.0783 11.6306 14.0473C11.0595 13.8035 10.4615 13.6879 9.84067 13.6713C9.42538 13.661 9.01632 13.6982 8.61349 13.7829C7.7663 13.9626 7.00009 14.3137 6.34394 14.8838C6.27334 14.9458 6.2152 14.9355 6.15914 14.857C6.07608 14.7372 6.08854 14.5946 6.20274 14.4893C6.42907 14.2745 6.6824 14.0948 6.95026 13.9357C7.25757 13.7519 7.58357 13.6011 7.92411 13.4937C8.20858 13.4049 8.50344 13.3388 8.65294 13.2995V13.2975Z" fill="#E8E6E9"/>
<path d="M5.83747 11.8914C5.7814 11.4907 5.83331 11.1974 6.04096 10.9392C6.18839 10.7554 6.37942 10.6376 6.60783 10.5757C6.91514 10.491 7.21207 10.5178 7.50485 10.6335C7.5713 10.6604 7.63566 10.6934 7.70003 10.7265C7.77479 10.7636 7.8267 10.8215 7.84539 10.9062C7.86615 10.9929 7.8973 11.0755 7.91806 11.1602C7.93467 11.2325 7.89522 11.2635 7.8267 11.2346C7.77894 11.2139 7.73533 11.185 7.68965 11.1623C7.49239 11.0611 7.28475 11.0094 7.06257 11.0445C6.69296 11.1024 6.48532 11.3936 6.54969 11.7613C6.57876 11.9348 6.65766 12.0876 6.75941 12.2281C7.00858 12.573 7.25775 12.9159 7.509 13.2588C7.62113 13.4137 7.61075 13.453 7.4384 13.5335C7.41764 13.5438 7.39895 13.5542 7.37819 13.5624C7.27021 13.6058 7.21207 13.5934 7.13524 13.5087C6.79678 13.1411 6.45625 12.7734 6.11986 12.4037C5.96621 12.2343 5.85616 12.0422 5.83954 11.8914H5.83747Z" fill="#E8E6E9"/>
<path d="M11.2197 10.9548C11.2716 11.2109 11.1969 11.4526 11.0889 11.6881C10.8978 12.1094 10.7068 12.5308 10.5137 12.9522C10.4597 13.0678 10.412 13.0968 10.2791 13.0844C10.2272 13.0802 10.1732 13.074 10.1213 13.0596C10.0548 13.0431 10.0299 13.0059 10.0465 12.9398C10.0839 12.7993 10.1296 12.6609 10.1732 12.5225C10.2791 12.1838 10.3912 11.8471 10.4888 11.5063C10.5469 11.2977 10.5448 11.0849 10.439 10.8887C10.3331 10.6883 10.1586 10.5933 9.93438 10.5871C9.65613 10.5809 9.43603 10.709 9.245 10.899C9.20762 10.9362 9.1744 10.9796 9.13287 11.0126C9.07473 11.0601 9.02697 11.0416 9.02282 10.9693C9.01659 10.8557 9.01036 10.74 9.02282 10.6264C9.02697 10.5768 9.06642 10.5231 9.10172 10.4859C9.2803 10.2959 9.49002 10.1513 9.74127 10.0708C10.1877 9.92616 10.7089 10.017 11.0162 10.4446C11.1242 10.5954 11.1906 10.7648 11.2155 10.9548H11.2197Z" fill="#E8E6E9"/>
<path d="M8.78401 13.1219C8.74871 13.1281 8.71548 13.1343 8.68018 13.1384C8.57844 13.1508 8.54522 13.1322 8.5203 13.0331C8.47669 12.8637 8.43932 12.6923 8.39779 12.5229C8.35626 12.3535 8.31473 12.1821 8.27113 12.0127C8.23167 11.8578 8.1943 11.7008 8.15277 11.5459C8.09047 11.3187 8.01988 11.0915 7.95966 10.8643C7.91813 10.7093 7.87453 10.5544 7.85791 10.3954C7.83923 10.2074 7.92851 10.0546 8.0967 9.96162C8.26905 9.86661 8.44347 9.86661 8.61374 9.97195C8.77985 10.0752 8.84007 10.2405 8.85045 10.4222C8.86499 10.6866 8.86914 10.951 8.88368 11.2175C8.89821 11.5128 8.9169 11.8082 8.93974 12.1036C8.9605 12.3824 8.98542 12.6613 9.01034 12.9401C9.01864 13.0475 8.99165 13.0847 8.88368 13.1033C8.85045 13.1095 8.81723 13.1136 8.78608 13.1198L8.78401 13.1219Z" fill="#E8E6E9"/>
<path d="M7.70638 11.7724C7.75414 11.7682 7.79151 11.76 7.82889 11.762C8.00539 11.7703 8.07183 11.8447 8.11544 12.0099C8.19642 12.3115 8.26702 12.6172 8.33969 12.9208C8.35215 12.9704 8.36669 13.02 8.37499 13.0716C8.38953 13.1542 8.36253 13.2017 8.28155 13.2286C8.18604 13.2596 8.08844 13.2864 7.99085 13.3153C7.9514 13.3277 7.91195 13.3401 7.87249 13.3546C7.77282 13.3918 7.73337 13.3814 7.67108 13.2947C7.49458 13.0489 7.31601 12.801 7.13951 12.5552C7.10421 12.5056 7.06683 12.4561 7.03569 12.4024C6.99001 12.328 6.99831 12.2536 7.05022 12.1834C7.18104 12.0058 7.36169 11.8942 7.56518 11.8137C7.61294 11.7951 7.66485 11.7848 7.7043 11.7744L7.70638 11.7724Z" fill="#E8E6E9"/>
<path d="M9.39474 11.5193C9.66053 11.4924 9.91178 11.542 10.136 11.6928C10.2315 11.7568 10.2565 11.8188 10.2232 11.9303C10.1568 12.1513 10.0862 12.3723 10.0156 12.5934C9.97822 12.7132 9.94085 12.833 9.90347 12.9507C9.8744 13.0436 9.84948 13.0643 9.75397 13.0664C9.61069 13.0705 9.4695 13.0726 9.32622 13.0726C9.21617 13.0726 9.17879 13.0457 9.16634 12.9362C9.1518 12.8082 9.14349 12.678 9.13311 12.5479C9.11858 12.3682 9.10404 12.1864 9.09158 12.0067C9.08743 11.9324 9.0812 11.858 9.08535 11.7857C9.09366 11.6515 9.17464 11.5627 9.30753 11.5317C9.3366 11.5255 9.36567 11.5213 9.39267 11.5172L9.39474 11.5193Z" fill="#E8E6E9"/>
<path d="M6.10999 12.8423C6.16605 12.8609 6.23042 12.8712 6.28026 12.9022C6.44637 13.0034 6.5668 13.1562 6.69762 13.2967C6.78483 13.3917 6.87204 13.4888 6.95717 13.5859C7.02777 13.6664 7.0257 13.7119 6.93641 13.7718C6.79521 13.8647 6.65194 13.9515 6.50866 14.0403C6.45883 14.0713 6.40899 14.0671 6.36331 14.03C6.23873 13.9246 6.11414 13.8193 5.99163 13.7139C5.92103 13.654 5.85043 13.5921 5.78399 13.528C5.67809 13.4248 5.66148 13.3421 5.72377 13.212C5.79437 13.0612 5.90857 12.9456 6.06015 12.8733C6.07469 12.8671 6.0913 12.8629 6.10583 12.8567C6.10583 12.8526 6.10999 12.8464 6.11206 12.8423H6.10999Z" fill="#E8E6E9"/>
<path d="M11.2469 12.0214C11.2781 12.0234 11.3113 12.0234 11.3424 12.0317C11.4753 12.0647 11.5937 12.1226 11.6954 12.2176C11.8159 12.3312 11.8345 12.4386 11.7536 12.5811C11.6394 12.7815 11.5189 12.9798 11.4006 13.176C11.3383 13.2772 11.3009 13.2937 11.1846 13.2669C11.0393 13.2318 10.8918 13.1946 10.7486 13.1553C10.6447 13.1264 10.6219 13.0851 10.6655 12.988C10.7756 12.7422 10.8856 12.4964 11.0019 12.2548C11.0434 12.1701 11.0953 12.0875 11.1888 12.0461C11.2075 12.0379 11.2261 12.0317 11.249 12.0214H11.2469Z" fill="#E8E6E9"/>
<path d="M6.75477 15.1168C6.75477 15.1168 6.74439 15.1044 6.74023 15.0961C6.79215 15.0589 6.84198 15.0218 6.89389 14.9866C6.98318 14.9288 7.07246 14.873 7.16175 14.8173C7.24896 14.7636 7.34033 14.7181 7.43999 14.6954C7.68294 14.6396 7.87605 14.7512 7.95288 14.966C7.98818 15.0631 7.99025 15.1602 7.9591 15.2593C7.93211 15.3461 7.87605 15.4163 7.8096 15.4782C7.74523 15.5381 7.66633 15.5815 7.59157 15.627C7.52928 15.6662 7.46491 15.7055 7.4047 15.7468C7.36317 15.7736 7.32371 15.8025 7.28219 15.8315C7.27803 15.8253 7.27388 15.8191 7.26765 15.8129C7.28011 15.8025 7.29464 15.7963 7.30503 15.786C7.31748 15.7736 7.32994 15.7612 7.34033 15.7447C7.35486 15.724 7.35486 15.6993 7.34033 15.6765C7.3071 15.627 7.2718 15.5753 7.23858 15.5258C7.18252 15.4431 7.12645 15.3626 7.06831 15.28C7.02678 15.2201 6.98525 15.1581 6.94165 15.0982C6.93542 15.0879 6.92711 15.0796 6.91881 15.0713C6.90635 15.0569 6.88974 15.0507 6.87105 15.0569C6.85029 15.0631 6.82744 15.0672 6.80876 15.0775C6.79007 15.0858 6.77346 15.1003 6.75477 15.1147V15.1168ZM7.13891 14.8937C7.18044 14.9619 7.22197 15.028 7.26142 15.0941C7.30918 15.1705 7.35694 15.249 7.4047 15.3254C7.4483 15.3956 7.49191 15.4659 7.53551 15.534C7.55835 15.5712 7.57081 15.5733 7.61234 15.5567C7.69955 15.5196 7.75769 15.4535 7.766 15.3543C7.77223 15.2841 7.75769 15.2159 7.7307 15.1498C7.69332 15.0569 7.64972 14.9681 7.57496 14.8958C7.50229 14.8255 7.41715 14.7863 7.31333 14.809C7.25104 14.8235 7.19497 14.8565 7.13891 14.8916V14.8937Z" fill="#E8E6E9"/>
<path d="M9.04499 15.0974L9.04085 15.0891C9.0305 15.0314 9.02016 14.9736 9.00774 14.9179C8.98705 14.8107 8.96428 14.7055 8.94359 14.5983C8.93945 14.5776 8.93531 14.5591 8.93117 14.5405C8.92083 14.491 8.91255 14.4415 8.9022 14.392C8.89393 14.3508 8.88358 14.3116 8.8753 14.2724C8.86702 14.2373 8.85047 14.2229 8.81322 14.2229C8.79873 14.2229 8.78632 14.2229 8.76976 14.2249C8.76976 14.2167 8.76769 14.2105 8.76562 14.2002C8.87116 14.1796 8.9767 14.1589 9.08431 14.1404C9.10293 14.2559 9.12156 14.3693 9.14018 14.4848C9.14639 14.4786 9.15467 14.4704 9.16088 14.4642C9.2064 14.4168 9.26227 14.3858 9.32436 14.3796C9.43817 14.3673 9.54578 14.4106 9.60372 14.5261C9.67408 14.6684 9.63476 14.8726 9.51267 14.9757C9.42576 15.0499 9.27469 15.085 9.16708 15.0128C9.15881 15.0066 9.1526 15.0128 9.14639 15.0169C9.12156 15.0396 9.09672 15.0623 9.07189 15.0829C9.06361 15.0912 9.0512 15.0953 9.03878 15.1015L9.04499 15.0974ZM9.18157 14.7323C9.19192 14.7921 9.20019 14.8519 9.21054 14.9118C9.22296 14.9757 9.27676 15.0108 9.33263 15.0004C9.38023 14.9901 9.4092 14.9674 9.41748 14.9138C9.42369 14.8705 9.42576 14.8251 9.42576 14.7818C9.42576 14.7406 9.41955 14.7014 9.41541 14.6601C9.41127 14.6086 9.40092 14.557 9.37402 14.5116C9.35126 14.4745 9.31608 14.4539 9.26848 14.4621C9.22089 14.4704 9.18778 14.4972 9.16088 14.5323C9.15674 14.5384 9.15467 14.5488 9.15467 14.557C9.16294 14.6168 9.17329 14.6746 9.18364 14.7344L9.18157 14.7323Z" fill="#E8E6E9"/>
<path d="M7.98712 14.7648C7.97678 14.7442 7.97678 14.7421 7.99954 14.7339C8.08232 14.7029 8.16716 14.6699 8.24993 14.639C8.25407 14.639 8.26028 14.639 8.26442 14.6369C8.28718 14.7029 8.30995 14.7689 8.33271 14.8349C8.35547 14.8989 8.37617 14.9628 8.39893 15.0247C8.40928 15.0515 8.41755 15.0783 8.4279 15.1051C8.45273 15.1629 8.51275 15.1546 8.53965 15.1196C8.56034 15.0948 8.57276 15.0639 8.58517 15.0329C8.58931 15.0247 8.58517 15.0123 8.58103 15.002C8.56241 14.9401 8.54379 14.8783 8.52516 14.8164C8.51068 14.7689 8.49619 14.7194 8.47964 14.672C8.46101 14.6204 8.44859 14.6143 8.39272 14.6204C8.39065 14.6204 8.38651 14.6204 8.38237 14.6204C8.38031 14.6122 8.37617 14.606 8.3741 14.5978C8.47343 14.5689 8.57069 14.5421 8.66795 14.5153C8.67623 14.5483 8.6845 14.5792 8.69278 14.6101C8.7052 14.6596 8.71761 14.7091 8.73003 14.7586C8.73417 14.7793 8.74038 14.7978 8.74452 14.8184C8.759 14.8721 8.77142 14.9236 8.7859 14.9773C8.79418 15.0041 8.80039 15.0329 8.81074 15.0577C8.82108 15.0824 8.83971 15.0928 8.86454 15.0866C8.88316 15.0824 8.88937 15.0907 8.8873 15.1093C8.80453 15.1319 8.71968 15.1546 8.63277 15.1773C8.62449 15.1526 8.61621 15.1278 8.60794 15.1031C8.59138 15.1299 8.5769 15.1546 8.56034 15.1773C8.52309 15.2268 8.4755 15.2598 8.41342 15.266C8.34513 15.2743 8.28718 15.2516 8.252 15.1918C8.2251 15.1464 8.20441 15.0989 8.18371 15.0494C8.15474 14.9814 8.12991 14.9133 8.10301 14.8453C8.0968 14.8288 8.09059 14.8102 8.08232 14.7958C8.06369 14.7628 8.04921 14.7545 8.01196 14.7607C8.00368 14.7607 7.9954 14.7648 7.98506 14.7669L7.98712 14.7648Z" fill="#E8E6E9"/>
<path d="M10.9992 14.4773C11.1399 14.4526 11.3076 14.531 11.3717 14.6568C11.4152 14.7413 11.4131 14.828 11.3821 14.9146C11.3469 15.0156 11.2807 15.092 11.1772 15.1291C11.0841 15.1621 10.9951 15.1476 10.9082 15.1085C10.8275 15.0734 10.7778 15.0095 10.7509 14.927C10.7137 14.8094 10.7261 14.698 10.7985 14.597C10.8461 14.531 10.9102 14.4897 10.9992 14.4773ZM10.9268 15.0095C10.9351 15.0734 10.9868 15.1023 11.0365 15.092C11.0737 15.0837 11.0944 15.0569 11.1089 15.0239C11.1565 14.9125 11.1875 14.795 11.2082 14.6753C11.2124 14.6526 11.2103 14.63 11.2082 14.6073C11.2 14.566 11.1731 14.5413 11.1296 14.533C11.0882 14.5248 11.053 14.5351 11.0303 14.5722C11.0158 14.5928 11.0054 14.6176 10.9992 14.6403C10.9785 14.7145 10.9599 14.7888 10.9413 14.863C10.9309 14.9105 10.9247 14.96 10.9289 15.0095H10.9268Z" fill="#E8E6E9"/>
<path d="M10.5246 14.4797C10.5163 14.5457 10.5081 14.6097 10.5018 14.6736C10.4936 14.7437 10.4853 14.8159 10.477 14.886C10.477 14.9005 10.4749 14.917 10.477 14.9314C10.4811 14.9685 10.5163 14.9892 10.5494 14.9727C10.5722 14.9603 10.5929 14.9438 10.6177 14.9273C10.6198 14.9294 10.626 14.9355 10.6343 14.9417C10.6012 14.9892 10.5619 15.0284 10.5039 15.0407C10.417 15.0614 10.3177 15.0304 10.2846 14.9355C10.2742 14.9067 10.2763 14.8737 10.2784 14.8427C10.2866 14.719 10.2949 14.5973 10.3053 14.4735C10.3053 14.4632 10.3053 14.457 10.2908 14.457C10.2639 14.457 10.237 14.4529 10.2101 14.4509C10.2059 14.4323 10.2142 14.4261 10.2266 14.4199C10.3301 14.3663 10.4253 14.2982 10.506 14.2137C10.5101 14.2095 10.5143 14.2054 10.5163 14.2013C10.5267 14.1827 10.5412 14.1765 10.5619 14.1869C10.5536 14.2611 10.5432 14.3374 10.535 14.4137C10.595 14.422 10.6529 14.4302 10.7129 14.4385C10.7108 14.457 10.7067 14.4735 10.7046 14.49C10.7046 14.5024 10.7005 14.5065 10.686 14.5045C10.6384 14.4962 10.5929 14.49 10.5453 14.4839C10.5391 14.4839 10.535 14.4839 10.5267 14.4839L10.5246 14.4797Z" fill="#E8E6E9"/>
<path d="M9.73644 14.3961C9.73644 14.3961 9.73644 14.3796 9.73644 14.3693C9.84163 14.3693 9.94475 14.3693 10.0499 14.3693C10.0458 14.491 10.0417 14.6106 10.0376 14.7302C10.0376 14.7859 10.0355 14.8395 10.0355 14.8952C10.0355 14.9674 10.0644 14.9715 10.1118 14.9798C10.1118 14.988 10.1118 14.9942 10.1118 15.0004C9.99425 15.0004 9.87669 15.0004 9.75912 15.0004C9.75912 14.9942 9.75913 14.988 9.75706 14.9818C9.7715 14.9777 9.78387 14.9756 9.79625 14.9715C9.81687 14.9633 9.83131 14.9488 9.83337 14.9261C9.83337 14.8911 9.83544 14.854 9.83337 14.8189C9.83337 14.7632 9.83131 14.7075 9.82925 14.6518C9.82925 14.5879 9.82513 14.5219 9.821 14.458C9.81894 14.4146 9.79006 14.4064 9.76119 14.4023C9.75294 14.4023 9.74469 14.4023 9.73438 14.4023L9.73644 14.3961Z" fill="#E8E6E9"/>
<path d="M9.90118 14.0594C9.98161 14.0491 10.0414 14.078 10.0621 14.1337C10.0703 14.1564 10.0662 14.177 10.0579 14.1976C10.0394 14.2389 9.98574 14.2678 9.93418 14.2657C9.88055 14.2616 9.83724 14.243 9.81455 14.1914C9.80011 14.1564 9.81249 14.1151 9.84549 14.0904C9.86405 14.0759 9.88674 14.0677 9.89911 14.0615L9.90118 14.0594Z" fill="#E8E6E9"/>
<path d="M23.1552 15.4411C22.5468 15.3523 21.9529 15.3688 21.3715 15.5258C21.3217 15.5403 21.2719 15.5547 21.2262 15.5754C21.1161 15.6249 21.1286 15.7571 21.1971 15.8232C21.2241 15.8501 21.2552 15.8418 21.2905 15.8336C21.4774 15.7943 21.6622 15.7489 21.8512 15.722C22.1149 15.6828 22.3848 15.6745 22.6548 15.6993C22.8541 15.7179 23.0576 15.7365 23.2528 15.7757C23.8155 15.8852 24.3367 16.0918 24.7997 16.4098C24.8558 16.447 24.8973 16.445 24.9409 16.3995C25.0178 16.321 25.0136 16.226 24.9119 16.1578C24.7541 16.0525 24.5921 15.9513 24.4239 15.8604C24.1955 15.7365 23.9525 15.6435 23.6992 15.5754C23.5186 15.5258 23.3358 15.4865 23.1531 15.4411H23.1552Z" fill="#E8E6E9"/>
<path d="M21.9206 14.1149C21.9434 14.2347 21.9663 14.3565 21.9912 14.4763C22.0452 14.4701 22.0929 14.4577 22.1365 14.4268C22.1739 14.3999 22.1947 14.3607 22.2051 14.3173C22.2113 14.2904 22.2113 14.2636 22.2154 14.2367C22.2154 14.2264 22.2196 14.2181 22.2321 14.2202C22.2383 14.2202 22.2445 14.2202 22.2528 14.2181C22.2715 14.3751 22.2902 14.5321 22.3089 14.6891C22.284 14.7015 22.2798 14.6994 22.2715 14.6746C22.2507 14.6085 22.2175 14.5528 22.149 14.5259C22.1158 14.5115 22.0805 14.5156 22.0452 14.5197C22.0306 14.5197 22.0182 14.5238 22.0016 14.5259C22.0099 14.5734 22.0182 14.6189 22.0286 14.6643C22.0389 14.718 22.0493 14.7717 22.0618 14.8254C22.0742 14.8812 22.0992 14.8998 22.1552 14.8894C22.2217 14.8791 22.2881 14.8709 22.3525 14.8523C22.4625 14.8213 22.5414 14.7511 22.583 14.6436C22.5851 14.6375 22.5871 14.6292 22.5892 14.623C22.5975 14.6023 22.5996 14.6023 22.6245 14.6085C22.612 14.7035 22.5996 14.8006 22.5871 14.8977C22.2819 14.9018 21.985 14.9535 21.6963 15.0547C21.6943 15.0464 21.6901 15.0382 21.688 15.0299C21.7046 15.0237 21.7213 15.0196 21.7379 15.0134C21.7462 15.0113 21.7545 15.0072 21.7607 15.0051C21.8064 14.9824 21.8209 14.9535 21.8085 14.906C21.796 14.8543 21.7815 14.8048 21.769 14.7531C21.742 14.654 21.7171 14.5548 21.6901 14.4557C21.6693 14.3813 21.6486 14.307 21.6278 14.2347C21.6174 14.1975 21.5925 14.1768 21.551 14.181C21.5095 14.1851 21.4679 14.1954 21.4222 14.2016C21.4222 14.1996 21.4202 14.1934 21.416 14.183C21.4243 14.181 21.4306 14.1768 21.4389 14.1748C21.6133 14.119 21.7877 14.0715 21.9683 14.0384C22.1241 14.0116 22.2798 13.9971 22.4355 13.9889C22.4563 13.9889 22.475 13.9847 22.4958 13.9847C22.5061 13.9847 22.5124 13.9847 22.5145 14.0013C22.5165 14.0798 22.5228 14.1603 22.5269 14.2388C22.5269 14.2429 22.5269 14.2491 22.5269 14.2553C22.5145 14.2553 22.5041 14.2553 22.4958 14.2553C22.4812 14.2243 22.4688 14.1954 22.4522 14.1686C22.4106 14.1025 22.3442 14.0798 22.2694 14.0715C22.1532 14.0591 22.0431 14.088 21.9289 14.1066C21.9289 14.1066 21.9268 14.1066 21.9227 14.1107L21.9206 14.1149Z" fill="#E8E6E9"/>
<path d="M23.808 14.8226C23.7749 14.7937 23.7396 14.7669 23.7085 14.7359C23.6505 14.6761 23.638 14.5936 23.6733 14.5256C23.6981 14.4781 23.7396 14.4513 23.7873 14.4328C23.864 14.4039 23.9407 14.4059 24.0174 14.4245C24.0879 14.441 24.1501 14.4719 24.2123 14.5111C24.2351 14.5256 24.2642 14.5318 24.2911 14.5421C24.3533 14.5668 24.4176 14.5916 24.4819 14.6184C24.4715 14.6431 24.4611 14.6658 24.4508 14.6864C24.4031 14.6658 24.3575 14.6473 24.3098 14.6287C24.3098 14.6287 24.3098 14.6308 24.3077 14.6328C24.3119 14.6411 24.3139 14.6473 24.3181 14.6555C24.3678 14.7442 24.316 14.8411 24.2331 14.8762C24.1771 14.9009 24.117 14.903 24.0568 14.9009C23.9946 14.8989 23.9366 14.8762 23.8785 14.8576C23.8516 14.8494 23.8225 14.8432 23.7956 14.8576C23.7562 14.8783 23.752 14.9257 23.7873 14.9504C23.808 14.9649 23.835 14.9711 23.8599 14.9793C23.9469 15.0061 24.0361 15.0309 24.1149 15.0783C24.1377 15.0928 24.1584 15.1093 24.175 15.1299C24.231 15.1979 24.2123 15.2804 24.1522 15.332C24.1045 15.3733 24.0465 15.3856 23.9843 15.3836C23.92 15.3794 23.8599 15.3671 23.7997 15.3485C23.7292 15.3258 23.6587 15.3011 23.5965 15.2578C23.5737 15.2413 23.553 15.2227 23.5406 15.1959C23.5219 15.1546 23.5406 15.1134 23.5758 15.0989C23.5986 15.0886 23.6256 15.0886 23.6525 15.0824C23.6587 15.0824 23.6629 15.0824 23.6691 15.0824C23.6546 15.068 23.6422 15.0556 23.6297 15.0412C23.582 14.9814 23.5945 14.9133 23.6546 14.87C23.6919 14.8432 23.7355 14.8329 23.7811 14.8267C23.7894 14.8267 23.7997 14.8246 23.806 14.8246L23.808 14.8226ZM24.1336 14.6287C24.1336 14.6287 24.1377 14.6081 24.1377 14.5978C24.146 14.5111 24.0838 14.4699 24.0154 14.474C23.9718 14.4781 23.9449 14.5029 23.9262 14.54C23.8993 14.5957 23.8806 14.6534 23.8744 14.7153C23.8744 14.7277 23.8744 14.7401 23.8744 14.7545C23.8806 14.7999 23.9158 14.8349 23.9615 14.8432C24.0091 14.8494 24.0465 14.8308 24.0714 14.7916C24.1045 14.7421 24.1211 14.6864 24.1315 14.6287H24.1336ZM23.9117 15.3299C23.9304 15.3299 23.9469 15.3341 23.9656 15.3341C23.9863 15.3341 24.0071 15.3299 24.0257 15.3217C24.0568 15.3073 24.0776 15.2701 24.0423 15.2371C24.0257 15.2206 24.0071 15.2062 23.9863 15.1979C23.9138 15.1711 23.8412 15.1464 23.7666 15.1237C23.7458 15.1175 23.723 15.1175 23.7044 15.1196C23.6587 15.1258 23.638 15.1732 23.665 15.2103C23.6795 15.2309 23.6981 15.2474 23.7189 15.2598C23.779 15.2949 23.8454 15.3093 23.9117 15.3279V15.3299Z" fill="#E8E6E9"/>
<path d="M25.3044 15.3021C25.2775 15.463 25.1244 15.5888 24.9588 15.5785C24.8119 15.5703 24.6919 15.5043 24.6194 15.3764C24.5077 15.1805 24.6091 14.9144 24.8574 14.8814C24.9381 14.8711 25.0105 14.8938 25.0809 14.9309C25.1678 14.9763 25.2382 15.0423 25.2796 15.133C25.3044 15.1866 25.3127 15.2423 25.3023 15.3021H25.3044ZM24.7395 15.3743C24.7208 15.4445 24.7933 15.5084 24.8615 15.4919C24.8947 15.4836 24.9195 15.461 24.9381 15.4341C24.9898 15.362 25.0395 15.2898 25.0892 15.2155C25.1119 15.1805 25.1326 15.1433 25.1388 15.1C25.1492 15.0299 25.0871 14.9639 25.0147 14.968C24.9733 14.9701 24.9443 14.9928 24.9236 15.0237C24.8802 15.0897 24.8367 15.1578 24.7953 15.2258C24.7684 15.2691 24.7477 15.3166 24.7353 15.3743H24.7395Z" fill="#E8E6E9"/>
<path d="M22.835 14.2815C22.835 14.2815 22.835 14.265 22.8329 14.2546C22.8908 14.2567 22.9488 14.2588 23.0046 14.2608C23.0626 14.2629 23.1205 14.2691 23.1785 14.2711C23.1743 14.3186 23.1702 14.364 23.1661 14.4135C23.1826 14.399 23.1971 14.3846 23.2116 14.3722C23.2633 14.3268 23.3213 14.2918 23.3916 14.2856C23.4247 14.2835 23.4578 14.2856 23.4889 14.298C23.5303 14.3165 23.551 14.3536 23.5427 14.3928C23.5303 14.4423 23.4972 14.4712 23.4496 14.4691C23.4082 14.4691 23.3751 14.4526 23.344 14.4238C23.3006 14.3846 23.2695 14.3846 23.224 14.4196C23.195 14.4423 23.1805 14.4753 23.1681 14.5083C23.1495 14.564 23.1454 14.6218 23.1412 14.6795C23.1412 14.7001 23.1371 14.7208 23.135 14.7435C23.1329 14.7661 23.1309 14.7868 23.1288 14.8095C23.1288 14.8466 23.1454 14.8693 23.1826 14.8775C23.193 14.8796 23.2033 14.8816 23.2137 14.8837C23.2137 14.892 23.2137 14.9002 23.2116 14.9085C23.1888 14.9085 23.1661 14.9043 23.1433 14.9023C23.0916 14.8981 23.0398 14.892 22.9881 14.8878C22.9405 14.8858 22.8908 14.8878 22.8432 14.8858C22.837 14.8858 22.8287 14.8796 22.8267 14.8734C22.8246 14.8631 22.8287 14.859 22.8412 14.859C22.8846 14.8548 22.8991 14.8404 22.9053 14.7991C22.9095 14.7558 22.9115 14.7125 22.9136 14.6692C22.9157 14.6176 22.9177 14.5681 22.9198 14.5166C22.9198 14.4609 22.9239 14.4031 22.9239 14.3475C22.9239 14.3021 22.8929 14.2835 22.8515 14.2794C22.8474 14.2794 22.8412 14.2794 22.835 14.2794V14.2815Z" fill="#E8E6E9"/>
<path d="M24.2759 7.92871C24.2427 7.93284 24.2095 7.93491 24.1762 7.93904C24.0184 7.95556 23.9852 7.99894 24.0163 8.14972C24.0433 8.28605 24.0724 8.42031 24.1036 8.56696C23.9748 8.4926 23.8544 8.42237 23.7339 8.35421C23.599 8.27779 23.5388 8.29431 23.4806 8.4389C23.4142 8.60414 23.383 8.77765 23.4059 8.95528C23.4225 9.08128 23.4661 9.1164 23.5928 9.09161C23.736 9.06476 23.8772 9.03171 24.033 8.99866C23.9707 9.10607 23.9146 9.20728 23.8544 9.30643C23.7277 9.51298 23.7277 9.56875 23.9935 9.65137C24.1264 9.69268 24.2759 9.69268 24.4171 9.69062C24.5479 9.69062 24.5832 9.63278 24.5562 9.50472C24.5292 9.36633 24.4981 9.22794 24.4649 9.07302C24.5583 9.12672 24.6434 9.17423 24.7286 9.22174C24.7805 9.25066 24.8303 9.28164 24.8822 9.30643C24.9694 9.34774 25.0193 9.33121 25.0629 9.25066C25.1397 9.11226 25.1605 8.95942 25.1688 8.80657C25.1708 8.76732 25.1667 8.72807 25.1605 8.69089C25.1439 8.55457 25.1023 8.52359 24.9632 8.5525C24.8428 8.57522 24.7223 8.60208 24.6019 8.62686C24.5832 8.63099 24.5645 8.63306 24.5334 8.63926C24.604 8.51532 24.6704 8.40172 24.7369 8.28605C24.8262 8.12907 24.8012 8.0671 24.631 8.0072C24.6102 8.001 24.5915 7.99068 24.5708 7.98035C24.4711 7.96383 24.3693 7.94937 24.2697 7.93284L24.2759 7.92871Z" fill="#E8E6E9"/>
<path d="M19.4082 11.6377C19.4248 11.7534 19.4331 11.8732 19.4622 11.9868C19.5266 12.2368 19.6657 12.4495 19.8235 12.6499C20.027 12.9081 20.2326 13.1621 20.4381 13.4182C20.4776 13.4657 20.5274 13.4988 20.5897 13.4802C20.6624 13.4575 20.7392 13.4306 20.8036 13.3893C20.87 13.348 20.8762 13.2902 20.8306 13.2117C20.7496 13.0733 20.6644 12.937 20.5772 12.8006C20.4236 12.5631 20.2554 12.3338 20.1578 12.0674C20.1038 11.9228 20.0685 11.7741 20.0934 11.615C20.1329 11.3713 20.3135 11.2226 20.5502 11.2081C20.6333 11.2019 20.7184 11.2164 20.8015 11.2329C20.9178 11.2556 20.9531 11.237 20.9676 11.1193C20.9759 11.0511 20.9821 10.985 20.9863 10.9169C20.9905 10.8611 20.9655 10.8198 20.9136 10.7991C20.544 10.6442 20.1806 10.6504 19.8339 10.8632C19.6491 10.9768 19.5224 11.1441 19.4643 11.3548C19.4622 11.363 19.4539 11.3713 19.4497 11.3796C19.4352 11.4642 19.4227 11.551 19.4082 11.6357V11.6377Z" fill="#E8E6E9"/>
<path d="M28.061 12.7039C28.0568 12.644 28.0568 12.582 28.0465 12.5221C27.9883 12.171 27.7765 11.9397 27.463 11.793C27.274 11.7063 27.0726 11.6732 26.865 11.6959C26.7819 11.7042 26.757 11.729 26.7425 11.8075C26.7279 11.8777 26.7092 11.9479 26.6968 12.0181C26.6822 12.0946 26.7072 12.1276 26.784 12.1338C26.9169 12.1441 27.0456 12.1689 27.1598 12.2433C27.3592 12.3714 27.4339 12.5986 27.355 12.8196C27.2782 13.0344 27.1391 13.2017 26.9729 13.3484C26.8193 13.4847 26.6532 13.6086 26.4933 13.7408C26.3874 13.8276 26.2815 13.9143 26.1818 14.0073C26.0946 14.0899 26.0967 14.1519 26.1818 14.2386C26.2192 14.2758 26.2607 14.3109 26.3043 14.3398C26.3625 14.377 26.4227 14.3708 26.4788 14.3336C26.7778 14.1374 27.0788 13.9453 27.3758 13.7429C27.6229 13.5735 27.8367 13.369 27.9613 13.0881C27.9821 13.0427 28.0008 12.9951 28.0195 12.9476C28.0319 12.8671 28.0465 12.7845 28.0589 12.7039H28.061Z" fill="#E8E6E9"/>
<path d="M23.7282 13.2457C22.7585 13.1011 21.9446 13.1445 21.1472 13.413C20.9873 13.4667 20.8316 13.537 20.6842 13.6155C20.5803 13.6692 20.5471 13.8385 20.6032 13.9439C20.6406 14.012 20.6779 14.0265 20.7506 13.9955C21.3216 13.7518 21.9196 13.6361 22.5405 13.6196C22.9558 13.6093 23.3648 13.6464 23.7677 13.7311C24.6149 13.9108 25.3811 14.262 26.0372 14.8321C26.1078 14.894 26.166 14.8837 26.222 14.8052C26.3051 14.6854 26.2926 14.5429 26.1784 14.4375C25.9521 14.2227 25.6988 14.043 25.4309 13.884C25.1236 13.7001 24.7976 13.5494 24.4571 13.4419C24.1726 13.3531 23.8777 13.287 23.7282 13.2478V13.2457Z" fill="#E8E6E9"/>
<path d="M26.5648 11.8493C26.6209 11.4486 26.569 11.1553 26.3614 10.8971C26.2139 10.7133 26.0229 10.5955 25.7945 10.5336C25.4872 10.4489 25.1902 10.4757 24.8975 10.5914C24.831 10.6182 24.7666 10.6513 24.7023 10.6843C24.6275 10.7215 24.5756 10.7794 24.5569 10.864C24.5362 10.9508 24.505 11.0334 24.4843 11.1181C24.4676 11.1904 24.5071 11.2214 24.5756 11.1925C24.6234 11.1718 24.667 11.1429 24.7127 11.1202C24.9099 11.019 25.1176 10.9673 25.3397 11.0024C25.7094 11.0603 25.917 11.3515 25.8526 11.7192C25.8215 11.8927 25.7447 12.0455 25.6429 12.186C25.3937 12.5309 25.1446 12.8738 24.8933 13.2167C24.7812 13.3716 24.7916 13.4109 24.9639 13.4914C24.9847 13.5017 25.0034 13.5121 25.0262 13.5203C25.1342 13.5637 25.1923 13.5513 25.2691 13.4666C25.6076 13.099 25.9481 12.7313 26.2845 12.3616C26.4382 12.1922 26.5482 12.0001 26.5648 11.8493Z" fill="#E8E6E9"/>
<path d="M21.1614 10.9338C21.1095 11.1899 21.1843 11.4316 21.2902 11.6671C21.4812 12.0884 21.6722 12.5098 21.8653 12.9312C21.9193 13.0469 21.9671 13.0758 22.0979 13.0634C22.1519 13.0592 22.2038 13.053 22.2557 13.0386C22.3222 13.0221 22.3471 12.9849 22.3284 12.9188C22.291 12.7783 22.2453 12.6399 22.2017 12.5015C22.0958 12.1628 21.9837 11.8261 21.8861 11.4853C21.828 11.2767 21.83 11.0639 21.9339 10.8677C22.0398 10.6674 22.2142 10.5723 22.4384 10.5661C22.7167 10.5599 22.9368 10.688 23.1278 10.878C23.1652 10.9152 23.1984 10.9586 23.2399 10.9916C23.2981 11.0391 23.3458 11.0206 23.35 10.9483C23.3562 10.8347 23.3624 10.719 23.35 10.6054C23.3458 10.5558 23.3064 10.5021 23.2711 10.4649C23.0925 10.2749 22.8828 10.1303 22.6315 10.0498C22.1851 9.90517 21.6639 9.99605 21.3566 10.4236C21.2486 10.5744 21.1822 10.7438 21.1573 10.9338H21.1614Z" fill="#E8E6E9"/>
<path d="M23.5838 13.0804C23.6191 13.0866 23.6523 13.0928 23.6876 13.0969C23.7893 13.1093 23.8226 13.0907 23.8475 12.9916C23.8911 12.8222 23.9285 12.6508 23.97 12.4814C24.0115 12.312 24.053 12.1406 24.0966 11.9712C24.1361 11.8163 24.1735 11.6593 24.215 11.5044C24.2773 11.2772 24.3479 11.05 24.4081 10.8228C24.4496 10.6678 24.4932 10.5129 24.5099 10.3539C24.5285 10.1659 24.4393 10.0131 24.2711 9.92012C24.0987 9.8251 23.9243 9.8251 23.754 9.93045C23.5879 10.0337 23.5277 10.199 23.5173 10.3807C23.5028 10.6451 23.4986 10.9095 23.4841 11.176C23.4696 11.4713 23.4509 11.7667 23.428 12.0621C23.4073 12.3409 23.3824 12.6198 23.3574 12.8986C23.3471 13.006 23.3761 13.0432 23.4841 13.0618C23.5173 13.068 23.5505 13.0721 23.5817 13.0783L23.5838 13.0804Z" fill="#E8E6E9"/>
<path d="M24.688 11.7309C24.6402 11.7267 24.6029 11.7185 24.5655 11.7205C24.389 11.7288 24.3225 11.8032 24.2789 11.9684C24.198 12.27 24.1274 12.5757 24.0547 12.8793C24.0422 12.9289 24.0277 12.9785 24.0194 13.0301C24.0048 13.1127 24.0318 13.1602 24.1128 13.1871C24.2083 13.2181 24.3059 13.2449 24.4035 13.2738C24.443 13.2862 24.4824 13.2986 24.5198 13.3131C24.6195 13.3503 24.6589 13.3399 24.7212 13.2532C24.8977 13.0074 25.0763 12.7595 25.2528 12.5137C25.2881 12.4641 25.3255 12.4146 25.3566 12.3609C25.4023 12.2865 25.394 12.2121 25.3421 12.1419C25.2113 11.9643 25.0306 11.8527 24.8271 11.7722C24.7794 11.7536 24.7274 11.7433 24.688 11.7329V11.7309Z" fill="#E8E6E9"/>
<path d="M23.0085 11.4778C22.7427 11.4509 22.4914 11.5005 22.2672 11.6513C22.1717 11.7153 22.1468 11.7773 22.18 11.8888C22.2464 12.1098 22.317 12.3308 22.3876 12.5519C22.425 12.6717 22.4624 12.7915 22.4997 12.9092C22.5288 13.0021 22.5537 13.0228 22.6493 13.0249C22.7904 13.029 22.9337 13.0311 23.077 13.0311C23.187 13.0311 23.2244 13.0042 23.2369 12.8947C23.2514 12.7667 23.2597 12.6365 23.2701 12.5064C23.2846 12.3267 23.2992 12.1449 23.3096 11.9652C23.3137 11.8909 23.3199 11.8165 23.3158 11.7442C23.3075 11.61 23.2265 11.5211 23.0936 11.4902C23.0645 11.484 23.0355 11.4798 23.0085 11.4757V11.4778Z" fill="#E8E6E9"/>
<path d="M26.2389 12.811C26.1828 12.8296 26.1184 12.84 26.0686 12.8709C25.9025 12.9721 25.782 13.125 25.6512 13.2655C25.564 13.3605 25.4768 13.4575 25.3917 13.5546C25.3211 13.6352 25.3232 13.6806 25.4124 13.7405C25.5536 13.8335 25.6969 13.9202 25.8402 14.009C25.89 14.04 25.9399 14.0359 25.9835 13.9987C26.1081 13.8934 26.2326 13.788 26.3551 13.6827C26.4257 13.6228 26.4963 13.5608 26.5628 13.4968C26.6687 13.3935 26.6853 13.3109 26.623 13.1808C26.5524 13.03 26.4382 12.9143 26.2866 12.842C26.2721 12.8358 26.2555 12.8317 26.2409 12.8255C26.2409 12.8214 26.2368 12.8152 26.2347 12.811H26.2389Z" fill="#E8E6E9"/>
<path d="M21.132 12.0004C21.1009 12.0024 21.0677 12.0024 21.0365 12.0107C20.9036 12.0437 20.7832 12.1016 20.6835 12.1966C20.5631 12.3102 20.5444 12.4176 20.6254 12.5601C20.7396 12.7605 20.86 12.9588 20.9784 13.155C21.0407 13.2562 21.078 13.2727 21.1943 13.2459C21.3397 13.2108 21.485 13.1736 21.6304 13.1343C21.7342 13.1054 21.757 13.0641 21.7134 12.967C21.6034 12.7212 21.4933 12.4754 21.3771 12.2338C21.3355 12.1491 21.2836 12.0665 21.1902 12.0252C21.1715 12.0169 21.1528 12.0107 21.13 12.0004H21.132Z" fill="#E8E6E9"/>
</svg>
