<svg width="20" height="20" viewBox="0 0 20 20" fill="none" xmlns="http://www.w3.org/2000/svg">
<path fill-rule="evenodd" clip-rule="evenodd" d="M9.17923 1.9032C9.80986 1.5816 10.5667 1.58808 11.1912 1.92044L18.9772 6.06361C19.7825 6.49217 19.785 7.60502 18.9816 8.03686L11.199 12.2199C10.5704 12.5578 9.80616 12.5644 9.17136 12.2374L1.03556 8.04659C0.207546 7.62006 0.210024 6.47726 1.03987 6.05406L9.17923 1.9032Z" fill="#62BDC1"/>
<path fill-rule="evenodd" clip-rule="evenodd" d="M17.8574 14.0829V6.72266H19.2657V14.0829C19.2657 14.4569 18.9504 14.7602 18.5616 14.7602C18.1727 14.7602 17.8574 14.4569 17.8574 14.0829Z" fill="#62BDC1"/>
<path fill-rule="evenodd" clip-rule="evenodd" d="M17.0808 8.86279H15.812H4.63288H3.22461V8.99424L9.83556 12.3996C10.0472 12.5086 10.3019 12.5064 10.5114 12.3938L17.0808 8.86279ZM17.2203 10.3396L11.1984 13.5763C10.5698 13.9142 9.80554 13.9208 9.17074 13.5938L3.22461 10.5309V13.8727C3.22461 14.6191 3.65001 15.3054 4.33263 15.6602L9.00346 18.0886C9.6256 18.412 10.3747 18.4145 10.9992 18.0953L16.0992 15.4881C16.7891 15.1354 17.2203 14.4453 17.2203 13.6938V10.3396Z" fill="#62BDC1"/>
</svg>
