<svg width="16" height="16" viewBox="0 0 16 16" fill="none" xmlns="http://www.w3.org/2000/svg">
<g clip-path="url(#clip0_2138_6799)">
<path d="M8 16C12.4183 16 16 12.4183 16 8C16 3.58172 12.4183 0 8 0C3.58172 0 0 3.58172 0 8C0 12.4183 3.58172 16 8 16Z" fill="#C6C6C6"/>
<path d="M9.34844 4.625C9.34844 4.32663 9.20621 4.04048 8.95304 3.8295C8.69987 3.61852 8.35648 3.5 7.99844 3.5C7.6404 3.5 7.29701 3.61852 7.04384 3.8295C6.79066 4.04048 6.64844 4.32663 6.64844 4.625C6.75316 6.2709 7.05465 7.90398 7.54844 9.5H8.44844C8.94223 7.90398 9.24372 6.2709 9.34844 4.625Z" fill="white"/>
<path d="M7.99766 12.5002C8.49471 12.5002 8.89766 12.0973 8.89766 11.6002C8.89766 11.1031 8.49471 10.7002 7.99766 10.7002C7.5006 10.7002 7.09766 11.1031 7.09766 11.6002C7.09766 12.0973 7.5006 12.5002 7.99766 12.5002Z" fill="white"/>
</g>
<defs>
<clipPath id="clip0_2138_6799">
<rect width="16" height="16" fill="white"/>
</clipPath>
</defs>
</svg>
