<svg width="16" height="16" viewBox="0 0 16 16" fill="none" xmlns="http://www.w3.org/2000/svg">
<g clip-path="url(#clip0_2080_4206)">
<path d="M8 16C12.4183 16 16 12.4183 16 8C16 3.58172 12.4183 0 8 0C3.58172 0 0 3.58172 0 8C0 12.4183 3.58172 16 8 16Z" fill="#B60005"/>
<path d="M9.35039 4.625C9.35039 4.32663 9.20817 4.04048 8.95499 3.8295C8.70182 3.61852 8.35843 3.5 8.00039 3.5C7.64235 3.5 7.29896 3.61852 7.04579 3.8295C6.79261 4.04048 6.65039 4.32663 6.65039 4.625C6.75511 6.2709 7.0566 7.90398 7.55039 9.5H8.45039C8.94418 7.90398 9.24567 6.2709 9.35039 4.625Z" fill="white"/>
<path d="M8.00156 12.5C8.49862 12.5 8.90156 12.097 8.90156 11.6C8.90156 11.1029 8.49862 10.7 8.00156 10.7C7.50451 10.7 7.10156 11.1029 7.10156 11.6C7.10156 12.097 7.50451 12.5 8.00156 12.5Z" fill="white"/>
</g>
<defs>
<clipPath id="clip0_2080_4206">
<rect width="16" height="16" fill="white"/>
</clipPath>
</defs>
</svg>
