<svg width="16" height="17" viewBox="0 0 16 17" fill="none" xmlns="http://www.w3.org/2000/svg">
<g clip-path="url(#clip0_2138_5781)">
<path d="M8 16.5C12.4183 16.5 16 12.9183 16 8.5C16 4.08172 12.4183 0.5 8 0.5C3.58172 0.5 0 4.08172 0 8.5C0 12.9183 3.58172 16.5 8 16.5Z" fill="#C6C6C6"/>
<path d="M8.8317 11.4562C8.86296 11.9356 8.48257 12.3416 8.00217 12.3416C7.52178 12.3416 7.14138 11.9356 7.17265 11.4562L7.28481 9.7364L5.84673 10.6993C5.4498 10.9651 4.91091 10.8403 4.67116 10.4271C4.43071 10.0127 4.59155 9.48133 5.02146 9.26985L6.56744 8.50933L5.01635 7.73378C4.58833 7.51977 4.42956 6.98905 4.66973 6.57514C4.91025 6.16062 5.4509 6.03545 5.84911 6.30209L7.28481 7.26337L7.17265 5.54359C7.14138 5.06421 7.52178 4.6582 8.00217 4.6582C8.48257 4.6582 8.86296 5.06421 8.8317 5.54359L8.71954 7.26337L10.1552 6.30209C10.5534 6.03545 11.0941 6.16062 11.3346 6.57514C11.5748 6.98905 11.416 7.51977 10.988 7.73378L9.4369 8.50933L10.9829 9.26985C11.4128 9.48133 11.5736 10.0127 11.3332 10.4271C11.0934 10.8403 10.5545 10.9651 10.1576 10.6993L8.71954 9.7364L8.8317 11.4562Z" fill="white"/>
</g>
<defs>
<clipPath id="clip0_2138_5781">
<rect width="16" height="16" fill="white" transform="translate(0 0.5)"/>
</clipPath>
</defs>
</svg>
